M48
;Layer_Color=9474304
;FILE_FORMAT=4:4
METRIC,LZ
;TYPE=PLATED
T01F00S00C0.3000
T02F00S00C0.9200
;TYPE=NON_PLATED
T04F00S00C1.1000
%
T01
X00004948Y00004919
X0001758
X00030212
X00042843
X00038735Y00013208
X00038481Y00025711
X00060516Y00036443
X00074054Y00036239
X00090103Y00035775
X00097322Y00035722
X00092726Y00044465
X00102346
X00111965
X00121585
X00128651Y00039629
X00134031Y00034243
X00131651Y00050662
X0011878Y00065057
X00111192Y00059601
X00105378Y00065834
X00112244Y00073241
X0011911Y00080648
X00135029Y00075649
X00140773Y00100516
Y00108181
X00135479Y00123677
X00131264Y00131378
X00118632
X00106001
X00093369
X00080738
X00068106
X00055475
X00042843
X00030212
X0001758
X00004948
Y00118732
Y00106087
Y00093441
Y00080795
Y00068149
Y00055503
Y00042857
Y00030211
Y00017565
X00055475Y00004919
X00068106
X00080738
X00093369
X00106001
X00118632
X00131264
X00104326Y00052194
X00098513Y00058427
X00086608Y00052194
X00083107Y00044465
X00079419Y00065701
X00081598Y00073721
X00068285Y00073772
X00053707Y0007878
X00051455Y00065543
X00052872Y00050671
X00064113Y00089862
X00060032Y00098576
Y00106319
X00070823
Y00114037
Y00098576
X00088183Y00098602
Y00106319
Y00114037
X00094722Y0011574
X00148125Y00123677
X00143896Y00131378
X00156527
X00169159
X00173417Y00123677
X00161478
Y00116414
X00149605Y00108181
Y00100516
X00187073Y00097227
X00187104Y00089783
X00202195Y00086892
X00204833Y00081188
X0019896Y00071057
Y00065217
X00218855Y00063221
Y00073535
X00221863Y00082449
Y0008959
X00211296Y00099579
X00209292Y00112841
X00211355Y00123677
X00207054Y00131378
X00219685
X00224Y00123677
X00232317Y00131378
X00244948
X0025758
Y00115824
X00247856
X00238132
X00227451Y00109386
X0021872Y00109202
X00199132Y00108777
X00198709Y00123677
X00194422Y00131378
X0018179
X00186063Y00123677
X00192796Y00047148
X00206879Y00047029
X0021346
X00232339Y00043148
X00241787Y00036814
X00228339Y00019554
X00210991Y00019786
X00207054Y00004919
X00194422
X0018179
X00169159
X00156527
X00143896
X00171287Y00021588
X00179895
X00153736Y0005059
X00152043Y00060716
X00219685Y00004919
X00232317
X00244948
X0025758
X00295518
Y00017565
Y00030211
X00284277
X00271631
X00284277Y00042857
X00295518
Y00055503
X00284277
Y00068149
X00295518
Y00080795
X00284277
Y00093441
X00295518
Y00106087
X00284277
X00295518Y00118732
Y00131378
X00246206Y00092079
T02
X00253306Y00033149
Y00058149
Y00078149
Y00103149
T04
X00274306Y00045649
Y00090649
M30
