G04*
G04 #@! TF.GenerationSoftware,Altium Limited,Altium Designer,23.8.1 (32)*
G04*
G04 Layer_Physical_Order=1*
G04 Layer_Color=255*
%FSLAX44Y44*%
%MOMM*%
G71*
G04*
G04 #@! TF.SameCoordinates,C9A30DB4-BB40-4B38-85DC-7C9B31114FAE*
G04*
G04*
G04 #@! TF.FilePolarity,Positive*
G04*
G01*
G75*
%ADD12C,0.1524*%
%ADD14C,0.1270*%
%ADD15C,0.2540*%
%ADD16R,2.0000X1.8000*%
%ADD17R,0.5000X0.5000*%
%ADD18R,0.5000X1.0750*%
%ADD19R,0.5080X1.1684*%
%ADD20R,0.7620X0.7620*%
%ADD21R,1.1500X1.4000*%
%ADD22O,1.8000X0.2800*%
%ADD23O,0.2800X1.8000*%
%ADD24R,1.1500X0.6000*%
%ADD33C,1.4200*%
%ADD34R,1.4200X1.4200*%
%ADD35C,1.1000*%
%ADD36O,3.0000X1.5000*%
%ADD37C,0.4572*%
%ADD38C,0.1016*%
%ADD39C,0.3810*%
%ADD40C,0.7620*%
%ADD41C,0.4570*%
G36*
X297766Y2590D02*
X2590D01*
Y133681D01*
X297766D01*
Y2590D01*
D02*
G37*
%LPC*%
G36*
X122628Y128365D02*
X47285D01*
X46591Y128227D01*
X46003Y127834D01*
X37300Y119131D01*
X36030Y119657D01*
Y127681D01*
X11966D01*
Y32867D01*
X36030D01*
Y42086D01*
X38752D01*
X39445Y42224D01*
X40033Y42617D01*
X48047Y50630D01*
X49317Y50104D01*
Y49963D01*
X49858Y48657D01*
X50858Y47657D01*
X52165Y47116D01*
X53579D01*
X54886Y47657D01*
X55155Y47926D01*
X69644D01*
X70658Y46912D01*
X70855Y46309D01*
X71044Y46119D01*
X71044Y41085D01*
X70683Y40724D01*
X71025Y38215D01*
D01*
X70499Y36946D01*
Y35531D01*
X71040Y34225D01*
X72040Y33225D01*
X72322Y33108D01*
Y20049D01*
X72529Y19007D01*
X73119Y18124D01*
X74002Y17534D01*
X75044Y17326D01*
X76086Y17534D01*
X76969Y18124D01*
X78120D01*
X79004Y17534D01*
X80045Y17326D01*
X81087Y17534D01*
X81709Y17949D01*
X82545Y18052D01*
X83381Y17949D01*
X84002Y17534D01*
X85044Y17326D01*
X86086Y17534D01*
X86969Y18124D01*
X88120D01*
X89004Y17534D01*
X90045Y17326D01*
X91087Y17534D01*
X91970Y18124D01*
X92561Y19007D01*
X92768Y20049D01*
Y33412D01*
X93117Y33761D01*
X93658Y35068D01*
Y36482D01*
X93117Y37789D01*
X92890Y38016D01*
X93416Y39286D01*
X116464D01*
X116569Y38864D01*
X116556Y38834D01*
X115507Y37879D01*
X115044Y37971D01*
X114002Y37764D01*
X113381Y37348D01*
X112545Y37245D01*
X111708Y37348D01*
X111087Y37764D01*
X110045Y37971D01*
X109003Y37764D01*
X108380Y37347D01*
X107545Y37244D01*
X106709Y37347D01*
X106086Y37764D01*
X105044Y37971D01*
X104002Y37764D01*
X103119Y37174D01*
X102529Y36290D01*
X102322Y35248D01*
Y20049D01*
X102529Y19007D01*
X103119Y18124D01*
X103231Y18049D01*
Y16197D01*
X103369Y15503D01*
X103762Y14915D01*
X110214Y8463D01*
X110802Y8070D01*
X111496Y7932D01*
X217810D01*
X219080Y7932D01*
X219080Y7932D01*
X221702D01*
X221971Y8201D01*
X222014D01*
X233801Y19988D01*
Y25275D01*
Y39499D01*
X226181D01*
Y26544D01*
X223916D01*
D01*
X217654D01*
X217613Y26586D01*
X217554Y26610D01*
Y26644D01*
Y38017D01*
X222709Y43172D01*
X227567D01*
X228260Y43310D01*
X228849Y43703D01*
X231273Y46127D01*
X231596Y46610D01*
X233801D01*
Y60834D01*
X217391D01*
X217139Y61442D01*
X214781Y63801D01*
X213809Y64203D01*
X213808Y64203D01*
X210311D01*
X209106Y64339D01*
Y72027D01*
X212920Y75841D01*
X240411D01*
X241383Y76244D01*
X241786Y77216D01*
Y84839D01*
X244981Y88034D01*
X256635D01*
X256635Y88033D01*
X257607Y88436D01*
X261378Y92207D01*
X261781Y93179D01*
X261781Y93179D01*
Y117632D01*
X261781Y117632D01*
X261378Y118604D01*
X259122Y120860D01*
X259122Y120860D01*
X258150Y121263D01*
X258150Y121263D01*
X237739D01*
X236767Y120860D01*
X236767Y120860D01*
X234503Y118596D01*
X234503Y118596D01*
X234101Y117624D01*
X234101Y117624D01*
Y101070D01*
X234101Y101070D01*
X234144Y100967D01*
X233237Y99886D01*
X233220Y99878D01*
X216732Y99878D01*
X212007Y95154D01*
X212007D01*
X211027Y94454D01*
X199213D01*
Y103479D01*
X200440Y104514D01*
X200483Y104518D01*
X213031Y104517D01*
X213031Y104517D01*
X214003Y104920D01*
X214003Y104920D01*
X214967Y105884D01*
X214967Y105884D01*
X215370Y106857D01*
X215370Y106857D01*
X215370Y117350D01*
X213377Y119343D01*
X213384Y119360D01*
X213384D01*
X211884Y120860D01*
X192729D01*
X191980Y120110D01*
X189890Y118021D01*
Y117376D01*
X189890Y117376D01*
Y101250D01*
X188717Y100764D01*
X188490Y100991D01*
X187518Y101394D01*
X187518Y101394D01*
X156301D01*
X155329Y100991D01*
X154927Y100019D01*
Y73838D01*
X155329Y72866D01*
X155896Y72631D01*
X155643Y71361D01*
X153225D01*
X153160Y71690D01*
X152570Y72573D01*
Y73724D01*
X153160Y74608D01*
X153367Y75649D01*
X153160Y76691D01*
X152570Y77574D01*
X151687Y78165D01*
X150645Y78372D01*
X137334D01*
X137043Y78663D01*
X135736Y79204D01*
X134322D01*
X133015Y78663D01*
X132015Y77663D01*
X131474Y76357D01*
Y74942D01*
X132015Y73636D01*
X133015Y72636D01*
X133186Y72073D01*
X132930Y71690D01*
X132723Y70648D01*
X132930Y69606D01*
X133520Y68723D01*
Y67574D01*
X132930Y66691D01*
X132723Y65649D01*
X132930Y64608D01*
X133520Y63724D01*
Y62573D01*
X132930Y61690D01*
X132723Y60648D01*
X132930Y59606D01*
X133520Y58723D01*
X134403Y58133D01*
X135445Y57926D01*
X149806D01*
X150030Y57702D01*
X151336Y57161D01*
X152751D01*
X154057Y57702D01*
X155057Y58702D01*
X155598Y60009D01*
Y61423D01*
X155057Y62730D01*
X154120Y63667D01*
X154143Y63984D01*
X154462Y64936D01*
X195405D01*
Y64510D01*
X195946Y63203D01*
X196946Y62203D01*
X198252Y61662D01*
X199454D01*
X200052Y61082D01*
X200382Y60584D01*
X200347Y60497D01*
X200347Y60497D01*
Y44266D01*
X200749Y43294D01*
X201721Y42892D01*
X205574D01*
X206060Y41718D01*
X203868Y39527D01*
X203475Y38939D01*
X203337Y38245D01*
Y25442D01*
X195550Y17654D01*
X123184D01*
X122505Y18924D01*
X122560Y19007D01*
X122768Y20049D01*
Y35248D01*
X122635Y35915D01*
Y39495D01*
X123567Y39680D01*
X125247Y40803D01*
X126370Y42483D01*
X126764Y44465D01*
X126370Y46447D01*
X125247Y48128D01*
X123567Y49250D01*
X121585Y49645D01*
X93533D01*
X92263Y49645D01*
X91260Y50648D01*
X91260Y53583D01*
X91261Y65272D01*
X92131Y66182D01*
X116055Y90105D01*
X116953Y91003D01*
Y91003D01*
X118898Y92949D01*
X135337D01*
X135445Y92927D01*
X150645D01*
X151687Y93134D01*
X152570Y93724D01*
X153160Y94608D01*
X153319Y95406D01*
X153420Y95649D01*
Y112079D01*
X153017Y113051D01*
X152045Y113454D01*
X134045D01*
X134038Y113451D01*
X132768Y114299D01*
Y116249D01*
X132560Y117291D01*
X131970Y118174D01*
X131858Y118249D01*
Y119135D01*
X131720Y119829D01*
X131327Y120417D01*
X123910Y127834D01*
X123322Y128227D01*
X122628Y128365D01*
D02*
G37*
G36*
X186640Y113162D02*
X172600D01*
Y104622D01*
X186640D01*
Y113162D01*
D02*
G37*
G36*
X275197Y97419D02*
X273415D01*
X271693Y96958D01*
X270149Y96066D01*
X268889Y94806D01*
X267997Y93262D01*
X267536Y91540D01*
Y89758D01*
X267997Y88036D01*
X268889Y86492D01*
X270149Y85232D01*
X271693Y84340D01*
X273415Y83879D01*
X275197D01*
X276919Y84340D01*
X278463Y85232D01*
X279723Y86492D01*
X280615Y88036D01*
X281076Y89758D01*
Y91540D01*
X280615Y93262D01*
X279723Y94806D01*
X278463Y96066D01*
X276919Y96958D01*
X275197Y97419D01*
D02*
G37*
G36*
X254408Y86519D02*
X252204D01*
X250075Y85948D01*
X248167Y84846D01*
X246608Y83288D01*
X245506Y81379D01*
X244936Y79251D01*
Y77047D01*
X245506Y74918D01*
X246608Y73010D01*
X248167Y71451D01*
X250075Y70349D01*
X252204Y69779D01*
X254408D01*
X256537Y70349D01*
X258445Y71451D01*
X260004Y73010D01*
X261106Y74918D01*
X261676Y77047D01*
Y79251D01*
X261106Y81379D01*
X260004Y83288D01*
X258445Y84846D01*
X256537Y85948D01*
X254408Y86519D01*
D02*
G37*
G36*
X183816Y62418D02*
X169776D01*
Y56220D01*
X166975D01*
X166182Y56062D01*
X165510Y55613D01*
X165510Y55613D01*
X162315Y52418D01*
X157705D01*
X157705Y52418D01*
X156582Y52772D01*
X155750Y53603D01*
X154443Y54145D01*
X153029D01*
X151722Y53603D01*
X151357Y53238D01*
X151312D01*
X150645Y53371D01*
X135445D01*
X134848Y53252D01*
X134088D01*
X133665Y53676D01*
X132358Y54217D01*
X130944D01*
X129637Y53676D01*
X128637Y52676D01*
X128096Y51369D01*
Y49955D01*
X128637Y48648D01*
X129637Y47648D01*
X130944Y47107D01*
X131797D01*
X132718Y46103D01*
X132779Y45934D01*
X132723Y45649D01*
X132930Y44608D01*
X133520Y43725D01*
Y42573D01*
X132930Y41690D01*
X132723Y40648D01*
X132930Y39606D01*
X133520Y38723D01*
X134403Y38133D01*
X135445Y37926D01*
X150645D01*
X151687Y38133D01*
X152350Y38577D01*
X157617D01*
X157705Y38488D01*
Y33878D01*
X165245D01*
Y38488D01*
X166824Y40067D01*
X185776D01*
Y23878D01*
X199816D01*
Y40418D01*
X194391D01*
X194261Y40613D01*
X194261Y40613D01*
X191271Y43604D01*
X190599Y44053D01*
X189806Y44210D01*
X189806Y44210D01*
X166238D01*
X166125Y44287D01*
X165357Y45183D01*
X165252Y45352D01*
X165245Y46529D01*
Y49488D01*
X167833Y52077D01*
X169776D01*
Y45878D01*
X183816D01*
Y62418D01*
D02*
G37*
G36*
X232736Y73229D02*
Y73229D01*
X222576D01*
X221302Y71955D01*
Y64343D01*
X222576Y63069D01*
X232736D01*
Y63069D01*
X233571Y63415D01*
X239920Y57067D01*
Y39888D01*
X239774Y39828D01*
X238774Y38828D01*
X238232Y37521D01*
Y36107D01*
X238774Y34800D01*
X239774Y33800D01*
X241080Y33259D01*
X242495D01*
X243801Y33800D01*
X244801Y34800D01*
X245343Y36107D01*
Y37521D01*
X244801Y38828D01*
X244063Y39566D01*
Y55398D01*
X245333Y55565D01*
X245506Y54918D01*
X246608Y53010D01*
X248167Y51451D01*
X250075Y50349D01*
X252204Y49779D01*
X254408D01*
X256537Y50349D01*
X258445Y51451D01*
X260004Y53010D01*
X261106Y54918D01*
X261676Y57047D01*
Y59251D01*
X261106Y61379D01*
X260004Y63288D01*
X258445Y64847D01*
X256537Y65948D01*
X254408Y66519D01*
X252204D01*
X250075Y65948D01*
X248167Y64847D01*
X246608Y63288D01*
X245827Y61934D01*
X244478Y61639D01*
X244275Y61690D01*
X243799Y62165D01*
X242814Y63151D01*
X234392Y71573D01*
X232736Y73229D01*
X232736Y73229D01*
D02*
G37*
G36*
X275197Y52419D02*
X273415D01*
X271693Y51958D01*
X270149Y51066D01*
X268889Y49806D01*
X267997Y48262D01*
X267536Y46540D01*
Y44757D01*
X267997Y43036D01*
X268889Y41492D01*
X270149Y40231D01*
X271693Y39340D01*
X273415Y38879D01*
X275197D01*
X276919Y39340D01*
X278463Y40231D01*
X279723Y41492D01*
X280615Y43036D01*
X281076Y44757D01*
Y46540D01*
X280615Y48262D01*
X279723Y49806D01*
X278463Y51066D01*
X276919Y51958D01*
X275197Y52419D01*
D02*
G37*
G36*
X39188Y29266D02*
X37774D01*
X36467Y28725D01*
X35467Y27725D01*
X34926Y26418D01*
Y25004D01*
X35467Y23697D01*
X36467Y22697D01*
X37774Y22156D01*
X39188D01*
X40495Y22697D01*
X41495Y23697D01*
X42036Y25004D01*
Y26418D01*
X41495Y27725D01*
X40495Y28725D01*
X39188Y29266D01*
D02*
G37*
G36*
X39442Y16763D02*
X38028D01*
X36721Y16222D01*
X35721Y15222D01*
X35180Y13915D01*
Y12501D01*
X35721Y11194D01*
X36721Y10194D01*
X38028Y9653D01*
X39442D01*
X40749Y10194D01*
X41749Y11194D01*
X42290Y12501D01*
Y13915D01*
X41749Y15222D01*
X40749Y16222D01*
X39442Y16763D01*
D02*
G37*
%LPD*%
G36*
X211355Y119360D02*
X213995Y116721D01*
X213995Y106856D01*
X213031Y105892D01*
X201041Y105892D01*
X199771Y105892D01*
X198302Y105892D01*
X197838Y105428D01*
Y104424D01*
X197838Y104424D01*
Y93544D01*
X197838D01*
X198303Y93079D01*
X212115D01*
X214190Y95154D01*
X214190D01*
X216572Y97536D01*
X237066Y97536D01*
X240411Y94191D01*
Y77216D01*
X191265D01*
Y117376D01*
X193249Y119360D01*
X211355Y119360D01*
D02*
G37*
G36*
X76444Y95710D02*
X68887D01*
X64510Y100086D01*
Y115160D01*
X67000Y117649D01*
X76444D01*
Y95710D01*
D02*
G37*
G36*
X152045Y95649D02*
X134045D01*
X134045Y103179D01*
Y112079D01*
X152045D01*
Y95649D01*
D02*
G37*
G36*
X88131Y118274D02*
X90326Y116079D01*
X90326Y115457D01*
D01*
Y115442D01*
Y94401D01*
X79696D01*
X78645Y95451D01*
Y116829D01*
Y117204D01*
X79722Y118281D01*
X86864D01*
X88131Y118274D01*
D02*
G37*
G36*
X260406Y117632D02*
Y93179D01*
X256635Y89408D01*
X244911D01*
X241879Y92440D01*
Y94667D01*
X237308Y99238D01*
X235475Y101070D01*
Y101501D01*
Y117624D01*
X237739Y119888D01*
X258150D01*
X260406Y117632D01*
D02*
G37*
G36*
X189806Y97731D02*
Y73838D01*
X156301D01*
Y100019D01*
X187518D01*
X189806Y97731D01*
D02*
G37*
G36*
X95434Y74611D02*
X77812Y56990D01*
X50030D01*
X49336Y56852D01*
X48748Y56459D01*
X38001Y45712D01*
X36030D01*
Y66336D01*
X42310D01*
X50516Y74542D01*
X56093D01*
X59008Y76914D01*
X64604D01*
X64972Y76291D01*
X65212Y75644D01*
X64730Y74479D01*
Y73065D01*
X65271Y71758D01*
X66271Y70758D01*
X67577Y70217D01*
X68992D01*
X70298Y70758D01*
X71298Y71758D01*
X71840Y73065D01*
Y74479D01*
X71357Y75644D01*
X71597Y76291D01*
X71966Y76914D01*
X93131D01*
X95434Y74611D01*
D02*
G37*
G36*
X216167Y60470D02*
Y45765D01*
X214668Y44266D01*
X201721D01*
Y60497D01*
X204052Y62829D01*
X213809D01*
X216167Y60470D01*
D02*
G37*
%LPC*%
G36*
X52162Y69099D02*
X50747D01*
X49441Y68557D01*
X48441Y67557D01*
X47900Y66251D01*
Y64836D01*
X48441Y63530D01*
X49441Y62530D01*
X50747Y61989D01*
X52162D01*
X53468Y62530D01*
X53962Y63023D01*
X54444Y62927D01*
X69644D01*
X70686Y63134D01*
X71569Y63724D01*
X72159Y64608D01*
X72367Y65649D01*
X72159Y66691D01*
X71569Y67575D01*
X70686Y68165D01*
X69644Y68372D01*
X54444D01*
X53785Y68241D01*
X53468Y68557D01*
X52162Y69099D01*
D02*
G37*
G36*
X80126Y69257D02*
X78712D01*
X77405Y68715D01*
X76405Y67715D01*
X75864Y66409D01*
Y64994D01*
X76405Y63688D01*
X77405Y62688D01*
X78712Y62147D01*
X80126D01*
X81433Y62688D01*
X82432Y63688D01*
X82974Y64994D01*
Y66409D01*
X82432Y67715D01*
X81433Y68715D01*
X80126Y69257D01*
D02*
G37*
%LPD*%
D12*
X241991Y37018D02*
Y57925D01*
X241787Y36814D02*
X241991Y37018D01*
X231768Y68149D02*
X241991Y57925D01*
X227656Y68149D02*
X231768D01*
X165965Y42139D02*
X189806D01*
X192796Y32148D02*
Y39148D01*
X189806Y42139D02*
X192796Y39148D01*
X166975Y54148D02*
X176796D01*
X161475Y48648D02*
X166975Y54148D01*
X158476Y45649D02*
X161475Y48648D01*
X143045Y45649D02*
X158476D01*
X143045Y40648D02*
X158475D01*
X161475Y37648D01*
X165965Y42139D01*
D14*
X152154Y66879D02*
X197212D01*
X198874Y65217D01*
X143045Y70648D02*
X150925D01*
X152154Y69419D01*
X150925Y65649D02*
X152154Y66879D01*
X143045Y65649D02*
X150925D01*
X152154Y69419D02*
X197321D01*
X198960Y71057D01*
X198874Y65217D02*
X198960D01*
X210991Y19786D02*
Y32387D01*
D15*
X218302Y73535D02*
X218855D01*
X212916Y68149D02*
X218302Y73535D01*
X212612Y67844D02*
X212916Y68149D01*
X212612Y67844D02*
X212764D01*
X131651Y50662D02*
X143031D01*
X131270D02*
X131651D01*
X143045Y50648D02*
X154224D01*
X161475Y58648D02*
Y58670D01*
X74054Y36239D02*
X75044Y35248D01*
Y27648D02*
Y35248D01*
X120045Y42926D02*
X121585Y44465D01*
X120045Y27648D02*
Y42926D01*
X85044Y39472D02*
X90037Y44465D01*
X92726D01*
X85044Y27648D02*
Y39472D01*
X62044Y50648D02*
X85062D01*
X86608Y52194D01*
X143113Y60716D02*
X152297D01*
X80045Y27648D02*
Y40997D01*
X82675Y43627D01*
X52872Y50671D02*
X52894Y50648D01*
X62044D01*
D16*
X23998Y116649D02*
D03*
Y43899D02*
D03*
Y68149D02*
D03*
Y92399D02*
D03*
Y19649D02*
D03*
D17*
X218804Y103817D02*
D03*
Y93817D02*
D03*
X227451D02*
D03*
Y103817D02*
D03*
X167448Y104579D02*
D03*
Y94579D02*
D03*
X158801Y104579D02*
D03*
Y94579D02*
D03*
X161475Y27648D02*
D03*
Y37648D02*
D03*
Y58648D02*
D03*
Y48648D02*
D03*
D18*
X237975Y110858D02*
D03*
Y87618D02*
D03*
D19*
X210991Y53723D02*
D03*
X220491D02*
D03*
X229991D02*
D03*
Y32387D02*
D03*
X220491D02*
D03*
X210991D02*
D03*
D20*
X227656Y68149D02*
D03*
X212916D02*
D03*
D21*
X176796Y32148D02*
D03*
Y54148D02*
D03*
X192796D02*
D03*
Y32148D02*
D03*
D22*
X143045Y40648D02*
D03*
Y45649D02*
D03*
Y50648D02*
D03*
Y55649D02*
D03*
Y60648D02*
D03*
Y65649D02*
D03*
Y70648D02*
D03*
Y75649D02*
D03*
Y80648D02*
D03*
Y85649D02*
D03*
Y90648D02*
D03*
Y95649D02*
D03*
X62044Y65649D02*
D03*
Y50648D02*
D03*
Y45649D02*
D03*
Y40648D02*
D03*
D23*
X130045Y108649D02*
D03*
X125044D02*
D03*
X120045D02*
D03*
X115044D02*
D03*
X110045D02*
D03*
X105044D02*
D03*
X100045D02*
D03*
X95044D02*
D03*
X85044D02*
D03*
X80045D02*
D03*
X75044D02*
D03*
Y27648D02*
D03*
X80045D02*
D03*
X85044D02*
D03*
X90045D02*
D03*
X95044D02*
D03*
X100045D02*
D03*
X105044D02*
D03*
X110045D02*
D03*
X115044D02*
D03*
X120045D02*
D03*
X125044D02*
D03*
X130045D02*
D03*
D24*
X205620Y89892D02*
D03*
Y99392D02*
D03*
Y108892D02*
D03*
X179620D02*
D03*
Y89892D02*
D03*
D33*
X253306Y33149D02*
D03*
Y58149D02*
D03*
Y78149D02*
D03*
D34*
Y103149D02*
D03*
D35*
X274306Y45649D02*
D03*
Y90649D02*
D03*
D36*
Y11149D02*
D03*
Y125149D02*
D03*
D37*
X257580Y131378D02*
X295474D01*
X257580Y4919D02*
X295474D01*
X295518D02*
Y17565D01*
Y30211D01*
Y42857D01*
Y55503D01*
Y68149D01*
Y80795D01*
Y93441D01*
Y106087D01*
Y118732D01*
Y131378D01*
X4948Y4919D02*
Y17565D01*
Y30211D01*
Y42857D01*
Y55503D01*
Y68149D01*
Y80795D01*
Y93441D01*
Y106087D01*
Y118732D01*
Y131378D01*
X17580D01*
X30212D01*
X42843D01*
X55475D01*
X68106D01*
X156527D02*
X169159D01*
X143896D02*
X156527D01*
X131264D02*
X143896D01*
X118632D02*
X131264D01*
X106001D02*
X118632D01*
X219685D02*
X232317D01*
X207054D02*
X219685D01*
X194422D02*
X207054D01*
X181790D02*
X194422D01*
X169159D02*
X181790D01*
X244948D02*
X257580D01*
X232317D02*
X244948D01*
X68106D02*
X80738D01*
X93369D01*
X106001D01*
X93369Y4919D02*
X106001D01*
X80738D02*
X93369D01*
X68106D02*
X80738D01*
X232317D02*
X244948D01*
X257580D01*
X169159D02*
X181790D01*
X194422D01*
X207054D01*
X219685D01*
X232317D01*
X106001D02*
X118632D01*
X131264D01*
X143896D01*
X156527D01*
X169159D01*
X55475D02*
X68106D01*
X42843D02*
X55475D01*
X30212D02*
X42843D01*
X17580D02*
X30212D01*
X4948D02*
X17580D01*
D38*
X53761Y78727D02*
X94753D01*
X53707Y78780D02*
X53761Y78727D01*
X94753D02*
X110045Y94019D01*
X61651Y84690D02*
X93812D01*
X105300Y96178D01*
X54430Y91911D02*
X61651Y84690D01*
X54430Y104606D02*
X55715Y105891D01*
X59811D02*
X60032Y106113D01*
X55715Y105891D02*
X59811D01*
X63577Y97896D02*
X70758Y90715D01*
X60069Y98576D02*
X60749Y97896D01*
X63577D01*
X70758Y90715D02*
X94290D01*
X62354Y120094D02*
X118158D01*
X120434Y123504D02*
X124905Y119033D01*
X54267Y123504D02*
X120434D01*
X40714Y109951D02*
X54267Y123504D01*
X122628Y126552D02*
X130045Y119135D01*
X47285Y126552D02*
X122628D01*
X37381Y116649D02*
X47285Y126552D01*
X50030Y55177D02*
X78563D01*
X115044Y91658D02*
Y108649D01*
X78563Y55177D02*
X115044Y91658D01*
X38752Y43899D02*
X50030Y55177D01*
X110045Y94019D02*
Y108649D01*
X94976Y108717D02*
X95044Y108649D01*
X94976Y108717D02*
Y115994D01*
X93960D02*
X94220Y115734D01*
X23998Y116649D02*
X37381D01*
X36837Y92399D02*
X40714Y96276D01*
Y109951D01*
X48372Y78653D02*
Y106111D01*
X62354Y120094D01*
X94290Y90715D02*
X100045Y96470D01*
X54430Y91911D02*
Y104606D01*
X105300Y96178D02*
Y108393D01*
X105044Y108649D02*
X105300Y108393D01*
X100045Y96470D02*
Y108649D01*
X23998Y43899D02*
X38752D01*
X37868Y68149D02*
X48372Y78653D01*
X23998Y68149D02*
X37868D01*
X118158Y120094D02*
X119972Y118279D01*
X124905Y108788D02*
Y119033D01*
X130045Y108649D02*
Y119135D01*
X119972Y108722D02*
X120045Y108649D01*
X119972Y108722D02*
Y118279D01*
X23998Y92399D02*
X36837D01*
X124905Y108788D02*
X125044Y108649D01*
X215104Y42139D02*
X220491Y47525D01*
X209044Y42139D02*
X215104D01*
X205150Y38245D02*
X209044Y42139D01*
X205150Y24691D02*
Y38245D01*
X196301Y15841D02*
X205150Y24691D01*
X111496Y9745D02*
X218531D01*
X228339Y19554D01*
X229991Y21205D02*
Y32387D01*
X228339Y19554D02*
X229991Y21205D01*
X215741Y38768D02*
X221958Y44985D01*
X212405Y12793D02*
X215741Y16130D01*
Y38768D01*
X221958Y44985D02*
X227567D01*
X229991Y47409D01*
Y53723D01*
X154224Y50648D02*
X154498Y50922D01*
X51455Y65543D02*
X61938D01*
X62044Y65649D01*
X114977Y12793D02*
X212405D01*
X110045Y17725D02*
X114977Y12793D01*
X110045Y17725D02*
Y27648D01*
X105044Y16197D02*
Y27648D01*
Y16197D02*
X111496Y9745D01*
X117207Y15841D02*
X196301D01*
X115044Y18004D02*
Y27648D01*
Y18004D02*
X117207Y15841D01*
X220491Y47525D02*
Y53629D01*
X143031Y50662D02*
X143045Y50648D01*
D39*
X218762Y103859D02*
Y109160D01*
Y103859D02*
X218804Y103817D01*
X218720Y109202D02*
X218762Y109160D01*
D40*
X92726Y44465D02*
X102346D01*
X111965D01*
X121585D01*
D41*
X228339Y19554D02*
D03*
X118780Y65057D02*
D03*
X119110Y80648D02*
D03*
X218855Y63221D02*
D03*
X198960Y65217D02*
D03*
Y71057D02*
D03*
X53707Y78780D02*
D03*
X70823Y106319D02*
D03*
X60032Y98576D02*
D03*
X94722Y115740D02*
D03*
X60032Y106319D02*
D03*
X227451Y109386D02*
D03*
X218720Y109202D02*
D03*
X4948Y30211D02*
D03*
X88183Y114037D02*
D03*
Y106319D02*
D03*
Y98602D02*
D03*
X64113Y89862D02*
D03*
X70823Y98576D02*
D03*
X221863Y89590D02*
D03*
Y82449D02*
D03*
X202195Y86892D02*
D03*
X38735Y13208D02*
D03*
X38481Y25711D02*
D03*
X213460Y47029D02*
D03*
X206879D02*
D03*
X210991Y19786D02*
D03*
X232339Y43148D02*
D03*
X241787Y36814D02*
D03*
X187104Y89783D02*
D03*
X68285Y73772D02*
D03*
X81598Y73721D02*
D03*
X187073Y97227D02*
D03*
X211296Y99579D02*
D03*
X111192Y59601D02*
D03*
X104326Y52194D02*
D03*
X112244Y73241D02*
D03*
X105378Y65834D02*
D03*
X192796Y47148D02*
D03*
X179895Y21588D02*
D03*
X171287D02*
D03*
X97322Y35722D02*
D03*
X74054Y36239D02*
D03*
X134031Y34243D02*
D03*
X98513Y58427D02*
D03*
X218855Y73535D02*
D03*
X60516Y36443D02*
D03*
X128651Y39629D02*
D03*
X90103Y35775D02*
D03*
X238132Y115824D02*
D03*
X247856D02*
D03*
X149605Y108181D02*
D03*
X140773D02*
D03*
X121585Y44465D02*
D03*
X111965D02*
D03*
X92726D02*
D03*
X102346D02*
D03*
X83107D02*
D03*
X52872Y50671D02*
D03*
X51455Y65543D02*
D03*
X79419Y65701D02*
D03*
X86608Y52194D02*
D03*
X153736Y50590D02*
D03*
X131651Y50662D02*
D03*
X152043Y60716D02*
D03*
X135029Y75649D02*
D03*
X204833Y81188D02*
D03*
X246206Y92079D02*
D03*
X257580Y115824D02*
D03*
X70823Y114037D02*
D03*
X199132Y108777D02*
D03*
X209292Y112841D02*
D03*
X224000Y123677D02*
D03*
X211355D02*
D03*
X198709D02*
D03*
X186063D02*
D03*
X135479D02*
D03*
X148125D02*
D03*
X173417D02*
D03*
X161478D02*
D03*
Y116414D02*
D03*
X271631Y30211D02*
D03*
X284277D02*
D03*
Y42857D02*
D03*
Y106087D02*
D03*
Y93441D02*
D03*
Y55503D02*
D03*
Y68149D02*
D03*
Y80795D02*
D03*
X140773Y100516D02*
D03*
X149605D02*
D03*
X244948Y131378D02*
D03*
X232317D02*
D03*
X219685D02*
D03*
X207054D02*
D03*
X194422D02*
D03*
X181790D02*
D03*
X169159D02*
D03*
X156527D02*
D03*
X143896D02*
D03*
X131264D02*
D03*
X118632D02*
D03*
X106001D02*
D03*
X93369D02*
D03*
X80738D02*
D03*
X68106D02*
D03*
X55475D02*
D03*
X42843D02*
D03*
X30212D02*
D03*
X17580D02*
D03*
X4948D02*
D03*
Y4919D02*
D03*
Y17565D02*
D03*
Y55503D02*
D03*
Y42857D02*
D03*
Y80795D02*
D03*
Y68149D02*
D03*
Y118732D02*
D03*
Y93441D02*
D03*
Y106087D02*
D03*
X17580Y4919D02*
D03*
X30212D02*
D03*
X42843D02*
D03*
X55475D02*
D03*
X68106D02*
D03*
X80738D02*
D03*
X93369D02*
D03*
X106001D02*
D03*
X118632D02*
D03*
X131264D02*
D03*
X143896D02*
D03*
X156527D02*
D03*
X169159D02*
D03*
X181790D02*
D03*
X194422D02*
D03*
X207054D02*
D03*
X219685D02*
D03*
X232317D02*
D03*
X244948D02*
D03*
X257580D02*
D03*
X295518D02*
D03*
Y17565D02*
D03*
Y30211D02*
D03*
Y42857D02*
D03*
Y55503D02*
D03*
Y68149D02*
D03*
Y80795D02*
D03*
Y93441D02*
D03*
Y106087D02*
D03*
Y118732D02*
D03*
X257580Y131378D02*
D03*
X295518D02*
D03*
M02*
