G04*
G04 #@! TF.GenerationSoftware,Altium Limited,Altium Designer,23.8.1 (32)*
G04*
G04 Layer_Physical_Order=4*
G04 Layer_Color=16711680*
%FSLAX44Y44*%
%MOMM*%
G71*
G04*
G04 #@! TF.SameCoordinates,C9A30DB4-BB40-4B38-85DC-7C9B31114FAE*
G04*
G04*
G04 #@! TF.FilePolarity,Positive*
G04*
G01*
G75*
%ADD12C,0.1524*%
%ADD14C,0.1270*%
%ADD15C,0.2540*%
%ADD16R,2.0000X1.8000*%
%ADD17R,0.5000X0.5000*%
%ADD33C,1.4200*%
%ADD34R,1.4200X1.4200*%
%ADD35C,1.1000*%
%ADD36O,3.0000X1.5000*%
%ADD37C,0.4572*%
%ADD38C,0.1016*%
%ADD39C,0.3810*%
%ADD41C,0.4570*%
%ADD42R,1.1325X1.3770*%
%ADD43R,0.6000X0.8000*%
%ADD44R,0.5000X0.6000*%
%ADD45R,0.5000X0.5000*%
%ADD46C,0.4064*%
%ADD47C,0.5080*%
G36*
X295518Y4919D02*
X4948D01*
Y131378D01*
X295518D01*
Y4919D01*
D02*
G37*
%LPC*%
G36*
X36030Y127681D02*
X11966D01*
Y34920D01*
X11960D01*
Y8062D01*
X12780Y7242D01*
X14884D01*
X15058Y7170D01*
X44654D01*
X44654Y7170D01*
X44827Y7242D01*
X45838D01*
X49317Y10721D01*
Y11830D01*
X49319Y11836D01*
X49319Y11836D01*
Y29157D01*
X49319Y29157D01*
X49317Y29162D01*
Y30882D01*
X50007Y31557D01*
Y31557D01*
X50297Y31840D01*
X50297D01*
X68183Y49338D01*
Y54313D01*
X69029Y55159D01*
X81271D01*
X83484Y57372D01*
X83484Y67626D01*
X81157Y69953D01*
X79159D01*
X77223Y71889D01*
Y75145D01*
X74455D01*
X74453Y75143D01*
X71564D01*
X71298Y75785D01*
X70298Y76785D01*
X68992Y77327D01*
X67577D01*
X66271Y76785D01*
X66165Y76679D01*
X65683Y76666D01*
X64453Y77858D01*
Y85227D01*
X61297D01*
X58183Y88341D01*
Y93540D01*
X59664Y95021D01*
X60739D01*
X60800Y95047D01*
X62068Y95047D01*
X64095Y97073D01*
X64095Y108285D01*
X62506Y109874D01*
X58972D01*
X58723Y109625D01*
X58019Y109333D01*
X57019Y108333D01*
X56935Y108132D01*
X54116D01*
X53423Y107994D01*
X52835Y107601D01*
X39445Y94212D01*
X36030D01*
Y114836D01*
X53588D01*
X54282Y114974D01*
X54870Y115367D01*
X59254Y119751D01*
X89517D01*
X91651Y117616D01*
X91167Y116447D01*
Y115033D01*
X91708Y113726D01*
X92709Y112726D01*
X94015Y112185D01*
X95429D01*
X96736Y112726D01*
X97736Y113726D01*
X98277Y115033D01*
Y116447D01*
X97736Y117754D01*
X96736Y118754D01*
X95429Y119295D01*
X95100D01*
X91550Y122846D01*
X90962Y123239D01*
X90268Y123377D01*
X58503D01*
X57810Y123239D01*
X57221Y122846D01*
X52838Y118462D01*
X36030D01*
Y127681D01*
D02*
G37*
G36*
X210000Y116396D02*
X208585D01*
X207279Y115855D01*
X206279Y114855D01*
X205737Y113548D01*
Y112134D01*
X206279Y110827D01*
X207279Y109827D01*
X208585Y109286D01*
X210000D01*
X211306Y109827D01*
X212306Y110827D01*
X212847Y112134D01*
Y113548D01*
X212306Y114855D01*
X211306Y115855D01*
X210000Y116396D01*
D02*
G37*
G36*
X199839Y112332D02*
X198425D01*
X197119Y111791D01*
X196119Y110791D01*
X195577Y109484D01*
Y108070D01*
X196119Y106763D01*
X197119Y105763D01*
X198425Y105222D01*
X199839D01*
X201146Y105763D01*
X202146Y106763D01*
X202687Y108070D01*
Y109484D01*
X202146Y110791D01*
X201146Y111791D01*
X199839Y112332D01*
D02*
G37*
G36*
X71531Y117592D02*
X70116D01*
X68810Y117051D01*
X67810Y116051D01*
X67268Y114744D01*
Y113330D01*
X67810Y112023D01*
X68810Y111023D01*
X69190Y110865D01*
Y109491D01*
X68810Y109333D01*
X67810Y108333D01*
X67268Y107026D01*
Y105612D01*
X67810Y104305D01*
X68810Y103305D01*
X69221Y103135D01*
Y101760D01*
X68810Y101590D01*
X67810Y100590D01*
X67268Y99284D01*
Y97869D01*
X67810Y96563D01*
X68065Y96307D01*
Y94810D01*
X66913D01*
Y87270D01*
X74453D01*
Y94810D01*
X73511D01*
X73355Y96080D01*
X73837Y96563D01*
X74378Y97869D01*
Y99284D01*
X73837Y100590D01*
X72837Y101590D01*
X72426Y101760D01*
Y103135D01*
X72837Y103305D01*
X73837Y104305D01*
X74378Y105612D01*
Y107026D01*
X73837Y108333D01*
X72837Y109333D01*
X72456Y109491D01*
Y110865D01*
X72837Y111023D01*
X73837Y112023D01*
X74378Y113330D01*
Y114744D01*
X73837Y116051D01*
X72837Y117051D01*
X71531Y117592D01*
D02*
G37*
G36*
X275197Y97419D02*
X273415D01*
X271693Y96958D01*
X270149Y96066D01*
X268889Y94806D01*
X267997Y93262D01*
X267536Y91540D01*
Y89758D01*
X267997Y88036D01*
X268889Y86492D01*
X270149Y85232D01*
X271693Y84340D01*
X273415Y83879D01*
X275197D01*
X276919Y84340D01*
X278463Y85232D01*
X279723Y86492D01*
X280615Y88036D01*
X281076Y89758D01*
Y91540D01*
X280615Y93262D01*
X279723Y94806D01*
X278463Y96066D01*
X276919Y96958D01*
X275197Y97419D01*
D02*
G37*
G36*
X202902Y90447D02*
X201488D01*
X200181Y89906D01*
X199181Y88906D01*
X198640Y87599D01*
Y86185D01*
X199181Y84879D01*
X200181Y83878D01*
X201488Y83337D01*
X201369Y82116D01*
X201278Y81895D01*
Y80481D01*
X201819Y79174D01*
X202819Y78174D01*
X204126Y77633D01*
X205540D01*
X206847Y78174D01*
X207847Y79174D01*
X208388Y80481D01*
Y81895D01*
X207847Y83202D01*
X206847Y84202D01*
X205540Y84743D01*
X205658Y85964D01*
X205750Y86185D01*
Y87599D01*
X205209Y88906D01*
X204209Y89906D01*
X202902Y90447D01*
D02*
G37*
G36*
X259708Y121640D02*
X235643D01*
X233867Y119864D01*
Y112758D01*
X229520Y108411D01*
X229493Y108345D01*
X228493Y107345D01*
X228426Y107317D01*
X225368Y104258D01*
X225367Y104258D01*
X224965Y103286D01*
X224965Y103286D01*
Y95342D01*
X224268Y94361D01*
X220243D01*
X217546Y91664D01*
Y80303D01*
X220204Y77645D01*
X224307Y77645D01*
X225069Y76691D01*
Y68693D01*
X225069D01*
Y67865D01*
X225069D01*
Y57325D01*
X224103Y56592D01*
X211395D01*
X209377Y58610D01*
Y66260D01*
X209377Y66260D01*
X209229Y67003D01*
X208808Y67633D01*
X205661Y70780D01*
X205030Y71201D01*
X204287Y71349D01*
X202515D01*
Y71764D01*
X201973Y73071D01*
X200973Y74071D01*
X199667Y74612D01*
X198252D01*
X196946Y74071D01*
X195946Y73071D01*
X195405Y71764D01*
Y70350D01*
X195946Y69043D01*
X196852Y68137D01*
X195946Y67231D01*
X195405Y65924D01*
Y64510D01*
X195946Y63203D01*
X196946Y62203D01*
X198252Y61662D01*
X199667D01*
X200973Y62203D01*
X201682Y62912D01*
X202952Y62500D01*
Y56753D01*
X203100Y56010D01*
X203521Y55380D01*
X206273Y52628D01*
X205787Y51455D01*
X201963D01*
X200991Y51052D01*
X200588Y50080D01*
Y32108D01*
X200991Y31136D01*
X200991Y31136D01*
X207962Y24164D01*
X208471Y23953D01*
X208625Y23602D01*
X208758Y22642D01*
X208746Y22569D01*
X207977Y21800D01*
X207436Y20494D01*
Y19079D01*
X207977Y17773D01*
X208977Y16773D01*
X210284Y16231D01*
X211698D01*
X212069Y15983D01*
Y15284D01*
X219609D01*
X219724Y15690D01*
X221854D01*
X222069Y15601D01*
Y15284D01*
X229609D01*
Y16232D01*
X230353Y16540D01*
X231353Y17540D01*
X231894Y18847D01*
Y20261D01*
X231353Y21568D01*
X230353Y22568D01*
X229609Y22876D01*
Y34024D01*
X239550D01*
X239774Y33800D01*
X241080Y33259D01*
X242495D01*
X243801Y33800D01*
X244801Y34800D01*
X245343Y36107D01*
Y37521D01*
X244801Y38828D01*
X243801Y39828D01*
X242495Y40369D01*
X241080D01*
X239774Y39828D01*
X238774Y38828D01*
X238500Y38167D01*
X229609D01*
Y40366D01*
X223339D01*
Y48444D01*
X222789Y48994D01*
X223275Y50167D01*
X239154D01*
X247586Y41735D01*
X248216Y41314D01*
X248960Y41167D01*
X259199D01*
X259942Y41314D01*
X260572Y41735D01*
X266530Y47693D01*
X267669Y47036D01*
X267536Y46540D01*
Y44757D01*
X267997Y43036D01*
X268889Y41492D01*
X270149Y40231D01*
X271693Y39340D01*
X273415Y38879D01*
X275197D01*
X276919Y39340D01*
X278463Y40231D01*
X279723Y41492D01*
X280615Y43036D01*
X281076Y44757D01*
Y46540D01*
X280615Y48262D01*
X279723Y49806D01*
X278463Y51066D01*
X276919Y51958D01*
X275197Y52419D01*
X273415D01*
X272430Y52155D01*
X272295Y52225D01*
X271443Y53205D01*
X271494Y53461D01*
X271494Y53461D01*
Y65724D01*
X271346Y66468D01*
X270925Y67098D01*
X267515Y70508D01*
X266885Y70929D01*
X266141Y71077D01*
X263125D01*
X260439Y73763D01*
X261106Y74918D01*
X261676Y77047D01*
Y79251D01*
X261106Y81379D01*
X260004Y83288D01*
X258445Y84846D01*
X256537Y85948D01*
X254408Y86519D01*
X252204D01*
X250075Y85948D01*
X248167Y84846D01*
X246608Y83288D01*
X245506Y81379D01*
X244936Y79251D01*
Y77047D01*
X245506Y74918D01*
X246173Y73763D01*
X243902Y71491D01*
X234558D01*
X233609Y72440D01*
Y78687D01*
X233609Y79233D01*
X234580Y79957D01*
X238589D01*
X239561Y80360D01*
X239561Y80360D01*
X240936Y81735D01*
X240977Y81743D01*
X242237Y82585D01*
X248953Y89301D01*
X249795Y90561D01*
X249803Y90602D01*
X253876Y94674D01*
X260406D01*
X260659Y94779D01*
X261676D01*
Y95796D01*
X261781Y96049D01*
X261781Y110292D01*
X261781Y110296D01*
X261677Y111508D01*
X261779Y112710D01*
X261781Y112724D01*
X261781D01*
Y119568D01*
X259708Y121640D01*
D02*
G37*
G36*
X170207Y113454D02*
X170207Y113454D01*
X126280D01*
X125308Y113051D01*
X124905Y112079D01*
X124905Y85770D01*
X124905Y82817D01*
X124921Y82780D01*
X125010Y81547D01*
X125010Y80457D01*
X124921Y79224D01*
X124905Y79187D01*
Y72983D01*
X125113Y72481D01*
X125010Y72327D01*
X125010D01*
Y63787D01*
X125010Y63787D01*
X125010Y63197D01*
X124921Y61964D01*
X124905Y61927D01*
Y51168D01*
X125308Y50196D01*
X125308Y50196D01*
X130679Y44825D01*
X131651Y44422D01*
X131651Y44422D01*
X166832D01*
X166832Y44422D01*
X166832Y44422D01*
X187074D01*
X187074Y44422D01*
X187280Y44422D01*
X187280Y44422D01*
X188352Y45494D01*
X188352D01*
X188405Y46724D01*
X188457Y46849D01*
X188457Y46849D01*
X188457Y83357D01*
X188397Y83502D01*
X191527Y86632D01*
Y98878D01*
X189097Y101308D01*
X182922Y101308D01*
X171179Y113051D01*
Y113051D01*
X170207Y113454D01*
D02*
G37*
G36*
X87315Y55749D02*
X85900D01*
X85561Y55608D01*
X84994D01*
X82802Y53416D01*
Y49338D01*
X77802D01*
X74072Y45608D01*
X66913D01*
Y38068D01*
X68658D01*
X68852Y37778D01*
X70499Y36131D01*
Y35531D01*
X71040Y34225D01*
X72040Y33225D01*
X73347Y32683D01*
X74761D01*
X76068Y33225D01*
X77068Y34225D01*
X77609Y35531D01*
Y36946D01*
X77582Y37012D01*
X78287Y38068D01*
X84072D01*
X84072Y38068D01*
X84072Y38068D01*
X86152D01*
Y24743D01*
X93692D01*
X95109Y26160D01*
Y36482D01*
X123776D01*
X126367Y39073D01*
Y46850D01*
X123917Y49301D01*
X121777D01*
X121739Y49338D01*
X97041D01*
Y54338D01*
X95771Y55608D01*
X87654D01*
X87315Y55749D01*
D02*
G37*
%LPD*%
G36*
X44104Y32997D02*
X47944Y29157D01*
Y11836D01*
X44654Y8545D01*
X15058D01*
X14154Y9430D01*
Y32974D01*
X36030D01*
Y32997D01*
X44104Y32997D01*
D02*
G37*
G36*
X260406Y110297D02*
X260406Y96049D01*
X253306D01*
X238589Y81332D01*
X226339D01*
Y103286D01*
X229398Y106345D01*
X229464Y106372D01*
X230465Y107373D01*
X230492Y107438D01*
X235273Y112219D01*
X258484D01*
X260406Y110297D01*
D02*
G37*
G36*
X218472Y25136D02*
X208934D01*
X201963Y32108D01*
Y50080D01*
X218472D01*
X218472Y25136D01*
D02*
G37*
G36*
X169666Y81649D02*
X169665Y68296D01*
X168421Y67052D01*
X141860D01*
X135929Y72983D01*
X126280Y72983D01*
Y79187D01*
X131280D01*
X135439Y83346D01*
X167968D01*
X169666Y81649D01*
D02*
G37*
G36*
X169415Y48380D02*
X166832Y45797D01*
X131651D01*
X126280Y51168D01*
Y61927D01*
X133693D01*
Y57708D01*
X137117Y54284D01*
X151445D01*
X156431Y59270D01*
Y62837D01*
X169415D01*
Y48380D01*
D02*
G37*
G36*
X182704Y99582D02*
Y87722D01*
X182756Y87670D01*
Y87658D01*
X187057Y83357D01*
X187082D01*
X187082Y46849D01*
X186050Y45817D01*
X176713D01*
X172684Y49846D01*
X172684Y82010D01*
X172685Y82010D01*
X172685Y82563D01*
X172178Y83070D01*
X169478Y85770D01*
X134233Y85770D01*
X131280Y82817D01*
X126280D01*
X126280Y85770D01*
X126280Y112079D01*
X170207D01*
X182704Y99582D01*
D02*
G37*
G36*
X124830Y46247D02*
Y40434D01*
X123734Y39338D01*
X87422D01*
Y44581D01*
X90320Y47479D01*
X123598D01*
X124830Y46247D01*
D02*
G37*
D12*
X241069Y36095D02*
X241787Y36814D01*
X225839Y36095D02*
X241069D01*
D14*
X209538Y52110D02*
X239959D01*
X204894Y56753D02*
X209538Y52110D01*
X210590Y54650D02*
X241011D01*
X204894Y56753D02*
Y65208D01*
X207434Y57806D02*
Y66260D01*
X204287Y69407D02*
X207434Y66260D01*
X203235Y66867D02*
X204894Y65208D01*
X201353Y69407D02*
X204287D01*
X201353Y66867D02*
X203235D01*
X207434Y57806D02*
X210590Y54650D01*
X253306Y58149D02*
X261752Y66595D01*
X244446Y67009D02*
X253306Y58149D01*
X265089Y66595D02*
X267012Y64672D01*
X261752Y66595D02*
X265089D01*
X233754Y67009D02*
X244446D01*
X229339Y62595D02*
X233754Y67009D01*
X267012Y54513D02*
Y64672D01*
X258147Y45649D02*
X267012Y54513D01*
X250012Y45649D02*
X258147D01*
X241011Y54650D02*
X250012Y45649D01*
X198960Y71057D02*
X199704D01*
X201353Y69407D01*
X253306Y78149D02*
X262320Y69135D01*
X266141D02*
X269552Y65724D01*
X262320Y69135D02*
X266141D01*
X244706Y69549D02*
X253306Y78149D01*
X233754Y69549D02*
X244706D01*
X229339Y73963D02*
X233754Y69549D01*
X269552Y53461D02*
X269552Y53461D01*
X269552Y53461D02*
Y65724D01*
X259199Y43109D02*
X269552Y53461D01*
X248960Y43109D02*
X259199D01*
X239959Y52110D02*
X248960Y43109D01*
X199704Y65217D02*
X201353Y66867D01*
X198960Y65217D02*
X199704D01*
X215839Y19554D02*
X217569D01*
X225839Y27825D01*
X210991Y19786D02*
X211223Y19554D01*
X215839D01*
D15*
X225839D02*
X228339D01*
X118780Y41838D02*
X121407Y44465D01*
X89566Y52194D02*
X89922Y51838D01*
X86608Y52194D02*
X89566D01*
X72472Y37821D02*
X72472D01*
X70683Y39610D02*
Y41838D01*
Y39610D02*
X72472Y37821D01*
X72472D02*
X74054Y36239D01*
X218427Y73963D02*
X218855Y73535D01*
X70655Y91292D02*
Y98111D01*
X89922Y41838D02*
X92549Y44465D01*
X80302Y41838D02*
X82091Y43627D01*
Y43627D01*
X82675D01*
X74628Y60790D02*
X79419Y65581D01*
X70683Y60790D02*
X74628D01*
X52872Y50671D02*
Y56434D01*
X57228Y60790D01*
X60683D01*
D16*
X23998Y116649D02*
D03*
Y92399D02*
D03*
Y68149D02*
D03*
Y43899D02*
D03*
Y19649D02*
D03*
D17*
X89922Y51838D02*
D03*
Y41838D02*
D03*
X118780Y51838D02*
D03*
Y41838D02*
D03*
X109160D02*
D03*
Y51838D02*
D03*
X99541Y41838D02*
D03*
Y51838D02*
D03*
X80302Y41838D02*
D03*
Y51838D02*
D03*
X70683Y41838D02*
D03*
Y51838D02*
D03*
D33*
X253306Y33149D02*
D03*
Y58149D02*
D03*
Y78149D02*
D03*
D34*
Y103149D02*
D03*
D35*
X274306Y45649D02*
D03*
Y90649D02*
D03*
D36*
Y11149D02*
D03*
Y125149D02*
D03*
D37*
X257580Y131378D02*
X295474D01*
X257580Y4919D02*
X295474D01*
X295518Y42857D02*
Y55503D01*
X118632Y4919D02*
X131264D01*
X80738D02*
X93369D01*
X295518Y93441D02*
Y106087D01*
X30212Y4919D02*
X42843D01*
X106001Y131378D02*
X118632D01*
X42843D02*
X55475D01*
X244948Y4919D02*
X257580D01*
X181790D02*
X194422D01*
X295518D02*
Y17565D01*
Y68149D02*
Y80795D01*
X169159Y131378D02*
X181790D01*
X4948Y55503D02*
Y68149D01*
Y80795D02*
Y93441D01*
X118632Y131378D02*
X131264D01*
X4948Y118732D02*
Y131378D01*
X93369D02*
X106001D01*
X30212D02*
X42843D01*
X232317Y4919D02*
X244948D01*
X106001D02*
X118632D01*
X295518Y118732D02*
Y131378D01*
X181790D02*
X194422D01*
X131264D02*
X143896D01*
X80738D02*
X93369D01*
X219685Y4919D02*
X232317D01*
X169159D02*
X181790D01*
X295518Y30211D02*
Y42857D01*
X17580Y131378D02*
X30212D01*
X68106D02*
X80738D01*
X156527Y4919D02*
X169159D01*
X93369D02*
X106001D01*
X295518Y80795D02*
Y93441D01*
X4948Y4919D02*
Y17565D01*
X194422Y131378D02*
X207054D01*
X4948Y30211D02*
Y42857D01*
X143896Y131378D02*
X156527D01*
X4948D02*
X17580D01*
X295518Y55503D02*
Y68149D01*
X68106Y4919D02*
X80738D01*
X295518Y106087D02*
Y118732D01*
X55475Y4919D02*
X68106D01*
X17580D02*
X30212D01*
X232317Y131378D02*
X244948D01*
X207054D02*
X219685D01*
X4948Y42857D02*
Y55503D01*
X156527Y131378D02*
X169159D01*
X4948Y93441D02*
Y106087D01*
X207054Y4919D02*
X219685D01*
X295518Y17565D02*
Y30211D01*
X143896Y4919D02*
X156527D01*
X42843D02*
X55475D01*
X244948Y131378D02*
X257580D01*
X4948Y4919D02*
X17580D01*
X219685Y131378D02*
X232317D01*
X4948Y17565D02*
Y30211D01*
Y68149D02*
Y80795D01*
X194422Y4919D02*
X207054D01*
X131264D02*
X143896D01*
X4948Y106087D02*
Y118732D01*
X55475Y131378D02*
X68106D01*
D38*
X23998Y68149D02*
X35518D01*
X41985Y74616D02*
Y84930D01*
X35518Y68149D02*
X41985Y74616D01*
Y84930D02*
X55631Y98576D01*
X60032D01*
X44106Y69179D02*
X53707Y78780D01*
X44106Y53818D02*
Y69179D01*
X54116Y106319D02*
X59826D01*
X60032Y106113D01*
X34193Y43906D02*
X44106Y53818D01*
X58503Y121564D02*
X90268D01*
X23998Y116649D02*
X53588D01*
X58503Y121564D01*
X90268D02*
X94976Y116855D01*
Y115994D02*
Y116855D01*
X23998Y92399D02*
X40196D01*
X54116Y106319D01*
X89922Y28512D02*
X90103Y28694D01*
X55353Y65543D02*
X60683Y70873D01*
X51455Y65543D02*
X55353D01*
X60683Y70873D02*
Y80957D01*
X144172Y60716D02*
X152043D01*
X136831Y68057D02*
X144172Y60716D01*
X130253Y68057D02*
X136831D01*
X24005Y43906D02*
X34193D01*
X23998Y43899D02*
X24005Y43906D01*
D39*
X68285Y73272D02*
Y73772D01*
Y73272D02*
X70683Y70873D01*
X90103Y28694D02*
Y35775D01*
D41*
X228339Y19554D02*
D03*
X118780Y65057D02*
D03*
X119110Y80648D02*
D03*
X218855Y63221D02*
D03*
X198960Y65217D02*
D03*
Y71057D02*
D03*
X53707Y78780D02*
D03*
X70823Y106319D02*
D03*
X60032Y98576D02*
D03*
X94722Y115740D02*
D03*
X60032Y106319D02*
D03*
X227451Y109386D02*
D03*
X218720Y109202D02*
D03*
X4948Y30211D02*
D03*
X88183Y114037D02*
D03*
Y106319D02*
D03*
Y98602D02*
D03*
X64113Y89862D02*
D03*
X70823Y98576D02*
D03*
X221863Y89590D02*
D03*
Y82449D02*
D03*
X202195Y86892D02*
D03*
X38735Y13208D02*
D03*
X38481Y25711D02*
D03*
X213460Y47029D02*
D03*
X206879D02*
D03*
X210991Y19786D02*
D03*
X232339Y43148D02*
D03*
X241787Y36814D02*
D03*
X187104Y89783D02*
D03*
X68285Y73772D02*
D03*
X81598Y73721D02*
D03*
X187073Y97227D02*
D03*
X211296Y99579D02*
D03*
X111192Y59601D02*
D03*
X104326Y52194D02*
D03*
X112244Y73241D02*
D03*
X105378Y65834D02*
D03*
X192796Y47148D02*
D03*
X179895Y21588D02*
D03*
X171287D02*
D03*
X97322Y35722D02*
D03*
X74054Y36239D02*
D03*
X134031Y34243D02*
D03*
X98513Y58427D02*
D03*
X218855Y73535D02*
D03*
X60516Y36443D02*
D03*
X128651Y39629D02*
D03*
X90103Y35775D02*
D03*
X238132Y115824D02*
D03*
X247856D02*
D03*
X149605Y108181D02*
D03*
X140773D02*
D03*
X121585Y44465D02*
D03*
X111965D02*
D03*
X92726D02*
D03*
X102346D02*
D03*
X83107D02*
D03*
X52872Y50671D02*
D03*
X51455Y65543D02*
D03*
X79419Y65701D02*
D03*
X86608Y52194D02*
D03*
X153736Y50590D02*
D03*
X131651Y50662D02*
D03*
X152043Y60716D02*
D03*
X135029Y75649D02*
D03*
X204833Y81188D02*
D03*
X246206Y92079D02*
D03*
X257580Y115824D02*
D03*
X70823Y114037D02*
D03*
X199132Y108777D02*
D03*
X209292Y112841D02*
D03*
X224000Y123677D02*
D03*
X211355D02*
D03*
X198709D02*
D03*
X186063D02*
D03*
X135479D02*
D03*
X148125D02*
D03*
X173417D02*
D03*
X161478D02*
D03*
Y116414D02*
D03*
X271631Y30211D02*
D03*
X284277D02*
D03*
Y42857D02*
D03*
Y106087D02*
D03*
Y93441D02*
D03*
Y55503D02*
D03*
Y68149D02*
D03*
Y80795D02*
D03*
X140773Y100516D02*
D03*
X149605D02*
D03*
X244948Y131378D02*
D03*
X232317D02*
D03*
X219685D02*
D03*
X207054D02*
D03*
X194422D02*
D03*
X181790D02*
D03*
X169159D02*
D03*
X156527D02*
D03*
X143896D02*
D03*
X131264D02*
D03*
X118632D02*
D03*
X106001D02*
D03*
X93369D02*
D03*
X80738D02*
D03*
X68106D02*
D03*
X55475D02*
D03*
X42843D02*
D03*
X30212D02*
D03*
X17580D02*
D03*
X4948D02*
D03*
Y4919D02*
D03*
Y17565D02*
D03*
Y55503D02*
D03*
Y42857D02*
D03*
Y80795D02*
D03*
Y68149D02*
D03*
Y118732D02*
D03*
Y93441D02*
D03*
Y106087D02*
D03*
X17580Y4919D02*
D03*
X30212D02*
D03*
X42843D02*
D03*
X55475D02*
D03*
X68106D02*
D03*
X80738D02*
D03*
X93369D02*
D03*
X106001D02*
D03*
X118632D02*
D03*
X131264D02*
D03*
X143896D02*
D03*
X156527D02*
D03*
X169159D02*
D03*
X181790D02*
D03*
X194422D02*
D03*
X207054D02*
D03*
X219685D02*
D03*
X232317D02*
D03*
X244948D02*
D03*
X257580D02*
D03*
X295518D02*
D03*
Y17565D02*
D03*
Y30211D02*
D03*
Y42857D02*
D03*
Y55503D02*
D03*
Y68149D02*
D03*
Y80795D02*
D03*
Y93441D02*
D03*
Y106087D02*
D03*
Y118732D02*
D03*
X257580Y131378D02*
D03*
X295518D02*
D03*
D42*
X162094Y55681D02*
D03*
X181419D02*
D03*
Y74937D02*
D03*
X162094D02*
D03*
D43*
X213363Y86019D02*
D03*
X230363D02*
D03*
X212339Y62595D02*
D03*
X229339D02*
D03*
Y73963D02*
D03*
X212339D02*
D03*
D44*
X215839Y19554D02*
D03*
X225839D02*
D03*
X118780Y68057D02*
D03*
X128780D02*
D03*
X60683Y80957D02*
D03*
X70683D02*
D03*
Y70873D02*
D03*
X60683D02*
D03*
Y60790D02*
D03*
X70683D02*
D03*
X215839Y36095D02*
D03*
X225839D02*
D03*
X215839Y27825D02*
D03*
X225839D02*
D03*
D45*
X128780Y59427D02*
D03*
X118780D02*
D03*
Y85317D02*
D03*
X128780D02*
D03*
X118780Y76687D02*
D03*
X128780D02*
D03*
X89922Y28512D02*
D03*
X79922D02*
D03*
X60683Y91040D02*
D03*
X70683D02*
D03*
X225839Y43866D02*
D03*
X215839D02*
D03*
D46*
X187135Y89783D02*
Y97165D01*
X221863Y82449D02*
Y89590D01*
X187073Y97227D02*
X187135Y97165D01*
D47*
X229339Y85332D02*
X239490D01*
X246206Y92048D01*
M02*
