G04*
G04 #@! TF.GenerationSoftware,Altium Limited,Altium Designer,23.8.1 (32)*
G04*
G04 Layer_Color=8388736*
%FSLAX44Y44*%
%MOMM*%
G71*
G04*
G04 #@! TF.SameCoordinates,C9A30DB4-BB40-4B38-85DC-7C9B31114FAE*
G04*
G04*
G04 #@! TF.FilePolarity,Negative*
G04*
G01*
G75*
%ADD19R,0.5080X1.1684*%
%ADD25R,2.0508X1.8508*%
%ADD26R,0.5508X0.5508*%
%ADD27R,0.5508X1.1258*%
%ADD28R,0.8128X0.8128*%
%ADD29R,1.2008X1.4508*%
%ADD30O,1.8508X0.3308*%
%ADD31O,0.3308X1.8508*%
%ADD32R,1.2008X0.6508*%
%ADD33C,1.4200*%
%ADD34R,1.4200X1.4200*%
%ADD35C,1.1000*%
%ADD36O,3.0000X1.5000*%
D19*
X210991Y53723D02*
D03*
X220491D02*
D03*
X229991D02*
D03*
Y32387D02*
D03*
X220491D02*
D03*
X210991D02*
D03*
D25*
X23998Y116649D02*
D03*
Y43899D02*
D03*
Y68149D02*
D03*
Y92399D02*
D03*
Y19649D02*
D03*
D26*
X218804Y103817D02*
D03*
Y93817D02*
D03*
X227451D02*
D03*
Y103817D02*
D03*
X167448Y104579D02*
D03*
Y94579D02*
D03*
X158801Y104579D02*
D03*
Y94579D02*
D03*
X161475Y27648D02*
D03*
Y37648D02*
D03*
Y58648D02*
D03*
Y48648D02*
D03*
D27*
X237975Y110858D02*
D03*
Y87618D02*
D03*
D28*
X227656Y68149D02*
D03*
X212916D02*
D03*
D29*
X176796Y32148D02*
D03*
Y54148D02*
D03*
X192796D02*
D03*
Y32148D02*
D03*
D30*
X143045Y40648D02*
D03*
Y45649D02*
D03*
Y50648D02*
D03*
Y55649D02*
D03*
Y60648D02*
D03*
Y65649D02*
D03*
Y70648D02*
D03*
Y75649D02*
D03*
Y80648D02*
D03*
Y85649D02*
D03*
Y90648D02*
D03*
Y95649D02*
D03*
X62044Y65649D02*
D03*
Y50648D02*
D03*
Y45649D02*
D03*
Y40648D02*
D03*
D31*
X130045Y108649D02*
D03*
X125044D02*
D03*
X120045D02*
D03*
X115044D02*
D03*
X110045D02*
D03*
X105044D02*
D03*
X100045D02*
D03*
X95044D02*
D03*
X85044D02*
D03*
X80045D02*
D03*
X75044D02*
D03*
Y27648D02*
D03*
X80045D02*
D03*
X85044D02*
D03*
X90045D02*
D03*
X95044D02*
D03*
X100045D02*
D03*
X105044D02*
D03*
X110045D02*
D03*
X115044D02*
D03*
X120045D02*
D03*
X125044D02*
D03*
X130045D02*
D03*
D32*
X205620Y89892D02*
D03*
Y99392D02*
D03*
Y108892D02*
D03*
X179620D02*
D03*
Y89892D02*
D03*
D33*
X253306Y33149D02*
D03*
Y58149D02*
D03*
Y78149D02*
D03*
D34*
Y103149D02*
D03*
D35*
X274306Y45649D02*
D03*
Y90649D02*
D03*
D36*
Y11149D02*
D03*
Y125149D02*
D03*
M02*
