G04*
G04 #@! TF.GenerationSoftware,Altium Limited,Altium Designer,23.8.1 (32)*
G04*
G04 Layer_Physical_Order=3*
G04 Layer_Color=39423*
%FSLAX44Y44*%
%MOMM*%
G71*
G04*
G04 #@! TF.SameCoordinates,C9A30DB4-BB40-4B38-85DC-7C9B31114FAE*
G04*
G04*
G04 #@! TF.FilePolarity,Positive*
G04*
G01*
G75*
%ADD34R,1.4200X1.4200*%
%ADD36O,3.0000X1.5000*%
%ADD37C,0.4572*%
%ADD41C,0.4570*%
G36*
X220714Y125032D02*
X220445Y124384D01*
Y122970D01*
X220987Y121664D01*
X221987Y120663D01*
X223293Y120122D01*
X224708D01*
X226014Y120663D01*
X226883Y121532D01*
X227498Y121442D01*
X228153Y121143D01*
Y112941D01*
X226744D01*
X225437Y112400D01*
X224437Y111400D01*
X223896Y110093D01*
Y108679D01*
X224437Y107373D01*
X225437Y106372D01*
X226744Y105831D01*
X228153D01*
Y76700D01*
X220504D01*
X219562Y77090D01*
X218148D01*
X217206Y76700D01*
X199678D01*
Y99579D01*
X199404Y100239D01*
Y100492D01*
X197481Y102415D01*
X197119D01*
X196645Y102612D01*
X196645Y102612D01*
X177606Y102612D01*
X177606Y102612D01*
X177132Y102415D01*
X176751D01*
X165660Y91324D01*
Y29867D01*
X160675Y24883D01*
X44008D01*
X41727Y27164D01*
X41495Y27725D01*
X40495Y28725D01*
X39934Y28957D01*
X39270Y29621D01*
X39270Y29621D01*
X39270Y29621D01*
X38867Y30024D01*
X38298D01*
X38298Y30024D01*
X38298Y30024D01*
X8574D01*
Y42857D01*
Y55503D01*
Y68149D01*
Y77591D01*
X50352D01*
X50694Y76767D01*
X51694Y75767D01*
X53000Y75225D01*
X54415D01*
X55721Y75767D01*
X56721Y76767D01*
X57063Y77591D01*
X71174D01*
X72065Y76700D01*
Y39262D01*
X72040Y39252D01*
X71040Y38252D01*
X70499Y36946D01*
Y35531D01*
X71040Y34225D01*
X72040Y33225D01*
X73347Y32683D01*
X74761D01*
X76068Y33225D01*
X77068Y34225D01*
X77609Y35531D01*
Y36946D01*
X77979Y37499D01*
X88294D01*
X88547Y37603D01*
X88820D01*
X89670Y37955D01*
X90537D01*
X91386Y37603D01*
X91660D01*
X91912Y37499D01*
X92835D01*
X93767Y36430D01*
Y35015D01*
X94308Y33709D01*
X95308Y32709D01*
X96615Y32167D01*
X98029D01*
X99336Y32709D01*
X100336Y33709D01*
X100877Y35015D01*
Y36430D01*
X101514Y37382D01*
X125870D01*
X126637Y36615D01*
X127944Y36074D01*
X129358D01*
X129610Y36178D01*
X130582Y35206D01*
X130476Y34950D01*
Y33536D01*
X131018Y32229D01*
X132017Y31229D01*
X133324Y30688D01*
X134738D01*
X136045Y31229D01*
X137045Y32229D01*
X137586Y33536D01*
Y34950D01*
X137105Y36112D01*
X137349Y36768D01*
X137715Y37382D01*
X142998D01*
Y69379D01*
X152736Y79117D01*
X152736Y92716D01*
X154377Y94357D01*
Y126302D01*
X157416D01*
X158191Y125032D01*
X157923Y124384D01*
Y122970D01*
X158464Y121664D01*
X159366Y120762D01*
X159419Y120045D01*
X159366Y119330D01*
X158464Y118427D01*
X157923Y117121D01*
Y115707D01*
X158464Y114400D01*
X159464Y113400D01*
X160771Y112859D01*
X162185D01*
X163492Y113400D01*
X164492Y114400D01*
X165033Y115707D01*
Y117121D01*
X164492Y118427D01*
X163590Y119330D01*
X163537Y120045D01*
X163590Y120762D01*
X164492Y121664D01*
X165033Y122970D01*
Y124384D01*
X164765Y125032D01*
X165540Y126302D01*
X169355D01*
X170130Y125032D01*
X169862Y124384D01*
Y122970D01*
X170403Y121664D01*
X171403Y120663D01*
X172710Y120122D01*
X174124D01*
X175431Y120663D01*
X176431Y121664D01*
X176972Y122970D01*
Y124384D01*
X176703Y125032D01*
X177479Y126302D01*
X182001D01*
X182776Y125032D01*
X182508Y124384D01*
Y122970D01*
X183049Y121664D01*
X184049Y120663D01*
X185356Y120122D01*
X186770D01*
X188076Y120663D01*
X189076Y121664D01*
X189618Y122970D01*
Y124384D01*
X189349Y125032D01*
X190125Y126302D01*
X194647D01*
X195422Y125032D01*
X195154Y124384D01*
Y122970D01*
X195695Y121664D01*
X196695Y120663D01*
X198001Y120122D01*
X199416D01*
X200722Y120663D01*
X201722Y121664D01*
X202264Y122970D01*
Y124384D01*
X201995Y125032D01*
X202771Y126302D01*
X207292D01*
X208068Y125032D01*
X207799Y124384D01*
Y122970D01*
X208341Y121664D01*
X209341Y120663D01*
X210647Y120122D01*
X212062D01*
X213368Y120663D01*
X214368Y121664D01*
X214909Y122970D01*
Y124384D01*
X214641Y125032D01*
X215417Y126302D01*
X219938D01*
X220714Y125032D01*
D02*
G37*
G36*
X257987Y125347D02*
X257960Y125149D01*
X258262Y122859D01*
X259146Y120726D01*
X260551Y118894D01*
X262383Y117488D01*
X264517Y116605D01*
X266806Y116303D01*
X281806D01*
X284095Y116605D01*
X286229Y117488D01*
X286693Y117844D01*
X287832Y117283D01*
Y109355D01*
X286562Y108829D01*
X286291Y109100D01*
X284984Y109641D01*
X283570D01*
X282263Y109100D01*
X281263Y108100D01*
X280722Y106794D01*
Y105379D01*
X281263Y104073D01*
X282263Y103073D01*
X283570Y102531D01*
X284984D01*
X286291Y103073D01*
X286562Y103344D01*
X287832Y102818D01*
Y96709D01*
X286562Y96183D01*
X286291Y96454D01*
X284984Y96995D01*
X283570D01*
X282263Y96454D01*
X281263Y95454D01*
X281076Y95003D01*
X279723Y94806D01*
X278463Y96066D01*
X276919Y96958D01*
X275197Y97419D01*
X273415D01*
X271693Y96958D01*
X270149Y96066D01*
X268889Y94806D01*
X267997Y93262D01*
X267536Y91540D01*
Y89758D01*
X267997Y88036D01*
X268889Y86492D01*
X270149Y85232D01*
X271693Y84340D01*
X273415Y83879D01*
X275197D01*
X276919Y84340D01*
X278463Y85232D01*
X279723Y86492D01*
X280615Y88036D01*
X281076Y89758D01*
Y89818D01*
X282263Y90427D01*
X283570Y89886D01*
X284984D01*
X286291Y90427D01*
X286562Y90698D01*
X287832Y90172D01*
Y84063D01*
X286562Y83537D01*
X286291Y83808D01*
X284984Y84350D01*
X283570D01*
X282263Y83808D01*
X281263Y82808D01*
X280722Y81502D01*
Y80087D01*
X281263Y78781D01*
X282132Y77912D01*
X282042Y77297D01*
X281742Y76642D01*
X261987D01*
X261676Y77047D01*
Y79251D01*
X261106Y81379D01*
X260004Y83288D01*
X258445Y84846D01*
X256537Y85948D01*
X254408Y86519D01*
X252204D01*
X250075Y85948D01*
X248167Y84846D01*
X246608Y83288D01*
X245506Y81379D01*
X244936Y79251D01*
Y77047D01*
X244625Y76642D01*
X231874D01*
Y126302D01*
X257149D01*
X257987Y125347D01*
D02*
G37*
G36*
X196645Y101237D02*
X198303Y99579D01*
Y75785D01*
X198281Y75267D01*
X197571Y74330D01*
X196946Y74071D01*
X195946Y73071D01*
X195405Y71764D01*
Y70350D01*
X195946Y69043D01*
X196852Y68137D01*
X195946Y67231D01*
X195405Y65924D01*
Y64510D01*
X195946Y63203D01*
X196946Y62203D01*
X198252Y61662D01*
X199667D01*
X200973Y62203D01*
X201973Y63203D01*
X202515Y64510D01*
Y65924D01*
X201973Y67231D01*
X201067Y68137D01*
X201973Y69043D01*
X202515Y70350D01*
Y71764D01*
X201973Y73071D01*
X201017Y74027D01*
X201029Y74261D01*
X201332Y75297D01*
X214596D01*
X215300Y74242D01*
Y72828D01*
X215842Y71521D01*
X216842Y70521D01*
X218148Y69980D01*
X219562D01*
X220869Y70521D01*
X221869Y71521D01*
X222410Y72828D01*
Y74027D01*
X222639Y74584D01*
X223115Y75297D01*
X231804D01*
X231874Y75268D01*
X244625D01*
X245007Y75116D01*
X245728Y74534D01*
X246608Y73010D01*
X248167Y71451D01*
X250075Y70349D01*
X252204Y69779D01*
X254408D01*
X256537Y70349D01*
X258445Y71451D01*
X260004Y73010D01*
X260884Y74534D01*
X261605Y75116D01*
X261987Y75268D01*
X281742D01*
X281812Y75297D01*
X287832D01*
Y71417D01*
X286562Y70891D01*
X286291Y71163D01*
X284984Y71704D01*
X283570D01*
X282263Y71163D01*
X281263Y70163D01*
X280722Y68856D01*
Y67442D01*
X281263Y66135D01*
X282263Y65135D01*
X283570Y64594D01*
X284984D01*
X286291Y65135D01*
X286562Y65406D01*
X287832Y64880D01*
Y58771D01*
X286562Y58245D01*
X286291Y58517D01*
X284984Y59058D01*
X283570D01*
X282263Y58517D01*
X281263Y57517D01*
X280722Y56210D01*
Y54796D01*
X281263Y53489D01*
X282263Y52489D01*
X283570Y51948D01*
X284984D01*
X286291Y52489D01*
X286562Y52760D01*
X287832Y52234D01*
Y46125D01*
X286562Y45599D01*
X286291Y45871D01*
X284984Y46412D01*
X283570D01*
X282263Y45871D01*
X281076Y46480D01*
Y46540D01*
X280615Y48262D01*
X279723Y49806D01*
X278463Y51066D01*
X276919Y51958D01*
X275197Y52419D01*
X273415D01*
X271693Y51958D01*
X270149Y51066D01*
X268889Y49806D01*
X267997Y48262D01*
X267536Y46540D01*
Y44757D01*
X267997Y43036D01*
X268889Y41492D01*
X270149Y40231D01*
X271693Y39340D01*
X273415Y38879D01*
X275197D01*
X276919Y39340D01*
X278463Y40231D01*
X279723Y41492D01*
X281076Y41295D01*
X281263Y40843D01*
X282263Y39843D01*
X283570Y39302D01*
X284984D01*
X286291Y39843D01*
X286562Y40114D01*
X287832Y39588D01*
Y33480D01*
X286562Y32954D01*
X286291Y33225D01*
X284984Y33766D01*
X283570D01*
X282263Y33225D01*
X281263Y32225D01*
X280722Y30918D01*
Y29504D01*
X281263Y28197D01*
X282263Y27197D01*
X283570Y26656D01*
X284984D01*
X286291Y27197D01*
X286562Y27469D01*
X287832Y26943D01*
Y19015D01*
X286693Y18453D01*
X286229Y18809D01*
X284095Y19693D01*
X281806Y19994D01*
X266806D01*
X264517Y19693D01*
X262383Y18809D01*
X260551Y17404D01*
X259146Y15572D01*
X258262Y13438D01*
X257960Y11149D01*
X257522Y10649D01*
X201896D01*
X8574Y10649D01*
Y17565D01*
Y28649D01*
X38298D01*
X43666Y23281D01*
X161018D01*
X167696Y29959D01*
Y91327D01*
X177606Y101237D01*
X196645Y101237D01*
D02*
G37*
G36*
X31478Y126721D02*
X131699Y126721D01*
X132011Y126302D01*
X132366Y125451D01*
X131924Y124384D01*
Y122970D01*
X132465Y121664D01*
X133465Y120663D01*
X134772Y120122D01*
X136186D01*
X137493Y120663D01*
X138493Y121664D01*
X139034Y122970D01*
Y124384D01*
X138592Y125451D01*
X138947Y126302D01*
X139259Y126721D01*
X144345D01*
X144657Y126302D01*
X145012Y125451D01*
X144570Y124384D01*
Y122970D01*
X145111Y121664D01*
X146111Y120663D01*
X147418Y120122D01*
X148832D01*
X150139Y120663D01*
X150571Y121096D01*
X151841Y120569D01*
X151841Y95445D01*
X148069Y91673D01*
Y79104D01*
X140865Y71899D01*
X140864Y38873D01*
X132238D01*
X132206Y38921D01*
Y40336D01*
X131665Y41642D01*
X130665Y42642D01*
X129358Y43183D01*
X127944D01*
X126637Y42642D01*
X125638Y41642D01*
X125096Y40336D01*
Y38921D01*
X125064Y38873D01*
X99005D01*
X98029Y39277D01*
X96615D01*
X95639Y38873D01*
X91912D01*
X90810Y39330D01*
X89396D01*
X88294Y38873D01*
X76447D01*
X76068Y39252D01*
X74761Y39793D01*
X74115D01*
X74115Y72501D01*
Y77591D01*
X71674Y80033D01*
X57037D01*
X56721Y80794D01*
X55721Y81794D01*
X54415Y82335D01*
X53000D01*
X51694Y81794D01*
X50694Y80794D01*
X50378Y80033D01*
X8574D01*
Y93441D01*
Y106087D01*
Y118732D01*
Y126721D01*
X31478D01*
D02*
G37*
%LPC*%
G36*
X219428Y112757D02*
X218013D01*
X216707Y112216D01*
X215707Y111216D01*
X215166Y109909D01*
Y108495D01*
X215707Y107188D01*
X216707Y106188D01*
X218013Y105647D01*
X219428D01*
X220734Y106188D01*
X221734Y107188D01*
X222276Y108495D01*
Y109909D01*
X221734Y111216D01*
X220734Y112216D01*
X219428Y112757D01*
D02*
G37*
G36*
X212003Y103134D02*
X210589D01*
X209283Y102593D01*
X208283Y101593D01*
X207741Y100286D01*
Y98872D01*
X208283Y97565D01*
X209283Y96565D01*
X210589Y96024D01*
X212003D01*
X213310Y96565D01*
X214310Y97565D01*
X214851Y98872D01*
Y100286D01*
X214310Y101593D01*
X213310Y102593D01*
X212003Y103134D01*
D02*
G37*
G36*
X52162Y69099D02*
X50747D01*
X49441Y68557D01*
X48441Y67557D01*
X47900Y66251D01*
Y64836D01*
X48441Y63530D01*
X49441Y62530D01*
X50747Y61989D01*
X52162D01*
X53468Y62530D01*
X54468Y63530D01*
X55009Y64836D01*
Y66251D01*
X54468Y67557D01*
X53468Y68557D01*
X52162Y69099D01*
D02*
G37*
G36*
X152751Y64271D02*
X151336D01*
X150030Y63730D01*
X149030Y62730D01*
X148488Y61423D01*
Y60009D01*
X149030Y58702D01*
X150030Y57702D01*
X151336Y57161D01*
X152751D01*
X154057Y57702D01*
X155057Y58702D01*
X155598Y60009D01*
Y61423D01*
X155057Y62730D01*
X154057Y63730D01*
X152751Y64271D01*
D02*
G37*
G36*
X53579Y54226D02*
X52165D01*
X50858Y53684D01*
X49858Y52684D01*
X49317Y51378D01*
Y49963D01*
X49858Y48657D01*
X50858Y47657D01*
X52165Y47116D01*
X53579D01*
X54886Y47657D01*
X55886Y48657D01*
X56427Y49963D01*
Y51378D01*
X55886Y52684D01*
X54886Y53684D01*
X53579Y54226D01*
D02*
G37*
G36*
X154443Y54145D02*
X153029D01*
X151722Y53603D01*
X150722Y52603D01*
X150181Y51297D01*
Y49883D01*
X150722Y48576D01*
X151722Y47576D01*
X153029Y47035D01*
X154443D01*
X155750Y47576D01*
X156750Y48576D01*
X157291Y49883D01*
Y51297D01*
X156750Y52603D01*
X155750Y53603D01*
X154443Y54145D01*
D02*
G37*
G36*
X61223Y39998D02*
X59809D01*
X58502Y39457D01*
X57502Y38457D01*
X56961Y37150D01*
Y35736D01*
X57502Y34430D01*
X58502Y33430D01*
X59809Y32888D01*
X61223D01*
X62530Y33430D01*
X63530Y34430D01*
X64071Y35736D01*
Y37150D01*
X63530Y38457D01*
X62530Y39457D01*
X61223Y39998D01*
D02*
G37*
G36*
X219562Y66775D02*
X218148D01*
X216842Y66234D01*
X215842Y65234D01*
X215300Y63928D01*
Y62513D01*
X215842Y61207D01*
X216842Y60207D01*
X218148Y59666D01*
X219562D01*
X220869Y60207D01*
X221869Y61207D01*
X222410Y62513D01*
Y63928D01*
X221869Y65234D01*
X220869Y66234D01*
X219562Y66775D01*
D02*
G37*
G36*
X254408Y66519D02*
X252204D01*
X250075Y65948D01*
X248167Y64847D01*
X246608Y63288D01*
X245506Y61379D01*
X244936Y59251D01*
Y57047D01*
X245506Y54918D01*
X246608Y53010D01*
X248167Y51451D01*
X250075Y50349D01*
X252204Y49779D01*
X254408D01*
X256537Y50349D01*
X258445Y51451D01*
X260004Y53010D01*
X261106Y54918D01*
X261676Y57047D01*
Y59251D01*
X261106Y61379D01*
X260004Y63288D01*
X258445Y64847D01*
X256537Y65948D01*
X254408Y66519D01*
D02*
G37*
G36*
X193503Y50703D02*
X192089D01*
X190783Y50162D01*
X189782Y49162D01*
X189241Y47855D01*
Y46441D01*
X189782Y45135D01*
X190783Y44134D01*
X192089Y43593D01*
X193503D01*
X194810Y44134D01*
X195810Y45135D01*
X196351Y46441D01*
Y47855D01*
X195810Y49162D01*
X194810Y50162D01*
X193503Y50703D01*
D02*
G37*
G36*
X233046Y46703D02*
X231632D01*
X230326Y46162D01*
X229326Y45162D01*
X228784Y43855D01*
Y42441D01*
X229326Y41135D01*
X230326Y40135D01*
X231632Y39593D01*
X233046D01*
X234353Y40135D01*
X235353Y41135D01*
X235894Y42441D01*
Y43855D01*
X235353Y45162D01*
X234353Y46162D01*
X233046Y46703D01*
D02*
G37*
G36*
X254408Y41519D02*
X252204D01*
X250075Y40948D01*
X248167Y39846D01*
X246608Y38288D01*
X246487Y38077D01*
X245074Y38170D01*
X244801Y38828D01*
X243801Y39828D01*
X242495Y40369D01*
X241080D01*
X239774Y39828D01*
X238774Y38828D01*
X238232Y37521D01*
Y36107D01*
X238774Y34800D01*
X239774Y33800D01*
X241080Y33259D01*
X242495D01*
X243666Y33744D01*
X244296Y33512D01*
X244936Y33139D01*
Y32047D01*
X245506Y29918D01*
X246608Y28010D01*
X248167Y26451D01*
X250075Y25349D01*
X252204Y24779D01*
X254408D01*
X256537Y25349D01*
X258445Y26451D01*
X260004Y28010D01*
X261106Y29918D01*
X261676Y32047D01*
Y34251D01*
X261106Y36379D01*
X260004Y38288D01*
X258445Y39846D01*
X256537Y40948D01*
X254408Y41519D01*
D02*
G37*
G36*
X272338Y33766D02*
X270924D01*
X269617Y33225D01*
X268617Y32225D01*
X268076Y30918D01*
Y29504D01*
X268617Y28197D01*
X269617Y27197D01*
X270924Y26656D01*
X272338D01*
X273645Y27197D01*
X274645Y28197D01*
X275186Y29504D01*
Y30918D01*
X274645Y32225D01*
X273645Y33225D01*
X272338Y33766D01*
D02*
G37*
G36*
X180602Y25143D02*
X179188D01*
X177882Y24601D01*
X176882Y23601D01*
X176340Y22295D01*
Y20880D01*
X176882Y19574D01*
X177882Y18574D01*
X179188Y18033D01*
X180602D01*
X181909Y18574D01*
X182909Y19574D01*
X183450Y20880D01*
Y22295D01*
X182909Y23601D01*
X181909Y24601D01*
X180602Y25143D01*
D02*
G37*
G36*
X171994D02*
X170580D01*
X169273Y24601D01*
X168274Y23601D01*
X167732Y22295D01*
Y20880D01*
X168274Y19574D01*
X169273Y18574D01*
X170580Y18033D01*
X171994D01*
X173301Y18574D01*
X174301Y19574D01*
X174842Y20880D01*
Y22295D01*
X174301Y23601D01*
X173301Y24601D01*
X171994Y25143D01*
D02*
G37*
G36*
X211698Y23341D02*
X210284D01*
X208977Y22800D01*
X207977Y21800D01*
X207436Y20494D01*
Y19079D01*
X207977Y17773D01*
X208977Y16773D01*
X210284Y16231D01*
X211698D01*
X213004Y16773D01*
X214004Y17773D01*
X214546Y19079D01*
Y20494D01*
X214004Y21800D01*
X213004Y22800D01*
X211698Y23341D01*
D02*
G37*
G36*
X229046Y23109D02*
X227632D01*
X226326Y22568D01*
X225326Y21568D01*
X224784Y20261D01*
Y18847D01*
X225326Y17540D01*
X226326Y16540D01*
X227632Y15999D01*
X229046D01*
X230353Y16540D01*
X231353Y17540D01*
X231894Y18847D01*
Y20261D01*
X231353Y21568D01*
X230353Y22568D01*
X229046Y23109D01*
D02*
G37*
G36*
X95429Y119295D02*
X94015D01*
X92709Y118754D01*
X91708Y117754D01*
X91586Y117458D01*
X90197Y117051D01*
X88891Y117592D01*
X87476D01*
X86170Y117051D01*
X85170Y116051D01*
X84629Y114744D01*
Y113330D01*
X85170Y112023D01*
X86170Y111023D01*
X86551Y110865D01*
Y109491D01*
X86170Y109333D01*
X85170Y108333D01*
X84629Y107026D01*
Y105612D01*
X85170Y104305D01*
X86170Y103305D01*
X86551Y103148D01*
Y101773D01*
X86170Y101615D01*
X85170Y100615D01*
X84629Y99309D01*
Y97894D01*
X85170Y96588D01*
X86170Y95588D01*
X87476Y95047D01*
X88891D01*
X90197Y95588D01*
X91197Y96588D01*
X91739Y97894D01*
Y99309D01*
X91197Y100615D01*
X90197Y101615D01*
X89817Y101773D01*
Y103148D01*
X90197Y103305D01*
X91197Y104305D01*
X91739Y105612D01*
Y107026D01*
X91197Y108333D01*
X90197Y109333D01*
X89817Y109491D01*
Y110865D01*
X90197Y111023D01*
X91197Y112023D01*
X91320Y112319D01*
X92709Y112726D01*
X94015Y112185D01*
X95429D01*
X96736Y112726D01*
X97736Y113726D01*
X98277Y115033D01*
Y116447D01*
X97736Y117754D01*
X96736Y118754D01*
X95429Y119295D01*
D02*
G37*
G36*
X60739Y109874D02*
X59325D01*
X58019Y109333D01*
X57019Y108333D01*
X56477Y107026D01*
Y105612D01*
X57019Y104305D01*
X58019Y103305D01*
X58430Y103135D01*
Y101760D01*
X58019Y101590D01*
X57019Y100590D01*
X56477Y99284D01*
Y97869D01*
X57019Y96563D01*
X58019Y95563D01*
X59325Y95021D01*
X60739D01*
X62046Y95563D01*
X63046Y96563D01*
X63587Y97869D01*
Y99284D01*
X63046Y100590D01*
X62046Y101590D01*
X61635Y101760D01*
Y103135D01*
X62046Y103305D01*
X63046Y104305D01*
X63587Y105612D01*
Y107026D01*
X63046Y108333D01*
X62046Y109333D01*
X60739Y109874D01*
D02*
G37*
G36*
X64820Y93417D02*
X63406D01*
X62099Y92876D01*
X61099Y91876D01*
X60558Y90569D01*
Y89155D01*
X61099Y87848D01*
X62099Y86848D01*
X63406Y86307D01*
X64820D01*
X66127Y86848D01*
X67127Y87848D01*
X67668Y89155D01*
Y90569D01*
X67127Y91876D01*
X66127Y92876D01*
X64820Y93417D01*
D02*
G37*
G36*
X119817Y84203D02*
X118403D01*
X117096Y83661D01*
X116096Y82662D01*
X115555Y81355D01*
Y79941D01*
X116096Y78634D01*
X117096Y77634D01*
X118403Y77093D01*
X119817D01*
X121124Y77634D01*
X122124Y78634D01*
X122665Y79941D01*
Y81355D01*
X122124Y82662D01*
X121124Y83661D01*
X119817Y84203D01*
D02*
G37*
G36*
X135736Y79204D02*
X134322D01*
X133015Y78663D01*
X132015Y77663D01*
X131474Y76357D01*
Y74942D01*
X132015Y73636D01*
X133015Y72636D01*
X134322Y72094D01*
X135736D01*
X137043Y72636D01*
X138043Y73636D01*
X138584Y74942D01*
Y76357D01*
X138043Y77663D01*
X137043Y78663D01*
X135736Y79204D01*
D02*
G37*
G36*
X82305Y77276D02*
X80891D01*
X79585Y76734D01*
X78584Y75734D01*
X78043Y74428D01*
Y73014D01*
X78584Y71707D01*
X79585Y70707D01*
X80891Y70166D01*
X82305D01*
X83612Y70707D01*
X84612Y71707D01*
X85153Y73014D01*
Y74428D01*
X84612Y75734D01*
X83612Y76734D01*
X82305Y77276D01*
D02*
G37*
G36*
X112951Y76796D02*
X111537D01*
X110230Y76255D01*
X109230Y75255D01*
X108689Y73948D01*
Y72534D01*
X109230Y71227D01*
X110230Y70227D01*
X111537Y69686D01*
X112951D01*
X114258Y70227D01*
X115258Y71227D01*
X115799Y72534D01*
Y73948D01*
X115258Y75255D01*
X114258Y76255D01*
X112951Y76796D01*
D02*
G37*
G36*
X106086Y69389D02*
X104671D01*
X103365Y68848D01*
X102365Y67848D01*
X101823Y66541D01*
Y65127D01*
X102365Y63820D01*
X103365Y62820D01*
X104671Y62279D01*
X106086D01*
X107392Y62820D01*
X108392Y63820D01*
X108933Y65127D01*
Y66541D01*
X108392Y67848D01*
X107392Y68848D01*
X106086Y69389D01*
D02*
G37*
G36*
X119487Y68612D02*
X118073D01*
X116766Y68071D01*
X115766Y67071D01*
X115225Y65764D01*
Y64350D01*
X115766Y63043D01*
X116766Y62043D01*
X118073Y61502D01*
X119487D01*
X120794Y62043D01*
X121794Y63043D01*
X122335Y64350D01*
Y65764D01*
X121794Y67071D01*
X120794Y68071D01*
X119487Y68612D01*
D02*
G37*
G36*
X111899Y63156D02*
X110485D01*
X109178Y62614D01*
X108178Y61614D01*
X107637Y60308D01*
Y58893D01*
X108178Y57587D01*
X109178Y56587D01*
X110485Y56046D01*
X111899D01*
X113206Y56587D01*
X114206Y57587D01*
X114747Y58893D01*
Y60308D01*
X114206Y61614D01*
X113206Y62614D01*
X111899Y63156D01*
D02*
G37*
G36*
X99220Y61982D02*
X97806D01*
X96499Y61441D01*
X95499Y60441D01*
X94958Y59134D01*
Y57720D01*
X95499Y56414D01*
X96499Y55414D01*
X97806Y54872D01*
X99220D01*
X100526Y55414D01*
X101526Y56414D01*
X102068Y57720D01*
Y59134D01*
X101526Y60441D01*
X100526Y61441D01*
X99220Y61982D01*
D02*
G37*
G36*
X105034Y55749D02*
X103619D01*
X102313Y55208D01*
X101313Y54208D01*
X100771Y52901D01*
Y51487D01*
X101313Y50180D01*
X102313Y49180D01*
X103619Y48639D01*
X105034D01*
X106340Y49180D01*
X107340Y50180D01*
X107881Y51487D01*
Y52901D01*
X107340Y54208D01*
X106340Y55208D01*
X105034Y55749D01*
D02*
G37*
G36*
X87315D02*
X85900D01*
X84594Y55208D01*
X83594Y54208D01*
X83053Y52901D01*
Y51487D01*
X83594Y50180D01*
X84594Y49180D01*
X85900Y48639D01*
X87315D01*
X88621Y49180D01*
X89621Y50180D01*
X90163Y51487D01*
Y52901D01*
X89621Y54208D01*
X88621Y55208D01*
X87315Y55749D01*
D02*
G37*
G36*
X132358Y54217D02*
X130944D01*
X129637Y53676D01*
X128637Y52676D01*
X128096Y51369D01*
Y49955D01*
X128637Y48648D01*
X129637Y47648D01*
X130944Y47107D01*
X132358D01*
X133665Y47648D01*
X134665Y48648D01*
X135206Y49955D01*
Y51369D01*
X134665Y52676D01*
X133665Y53676D01*
X132358Y54217D01*
D02*
G37*
G36*
X83814Y48020D02*
X82400D01*
X81093Y47479D01*
X80093Y46479D01*
X79552Y45172D01*
Y43758D01*
X80093Y42452D01*
X81093Y41452D01*
X82400Y40910D01*
X83814D01*
X85121Y41452D01*
X86121Y42452D01*
X86662Y43758D01*
Y45172D01*
X86121Y46479D01*
X85121Y47479D01*
X83814Y48020D01*
D02*
G37*
%LPD*%
D34*
X253306Y103149D02*
D03*
D36*
X274306Y11149D02*
D03*
Y125149D02*
D03*
D37*
X257580Y131378D02*
X295474D01*
X257580Y4919D02*
X295474D01*
X93369D02*
X106001D01*
X4948Y17565D02*
Y30211D01*
X181790Y4919D02*
X194422D01*
X4948Y93441D02*
Y106087D01*
X295518Y68149D02*
Y80795D01*
X118632Y131378D02*
X131264D01*
X169159D02*
X181790D01*
X4948Y4919D02*
Y17565D01*
X143896Y4919D02*
X156527D01*
X169159D02*
X181790D01*
X4948Y80795D02*
Y93441D01*
X219685Y4919D02*
X232317D01*
X30212Y131378D02*
X42843D01*
X93369D02*
X106001D01*
X295518Y55503D02*
Y68149D01*
X30212Y4919D02*
X42843D01*
X17580D02*
X30212D01*
X4948Y68149D02*
Y80795D01*
X17580Y131378D02*
X30212D01*
X244948Y4919D02*
X257580D01*
X131264Y131378D02*
X143896D01*
X181790D02*
X194422D01*
X42843Y4919D02*
X55475D01*
X4948Y131378D02*
X17580D01*
X80738D02*
X93369D01*
X295518Y42857D02*
Y55503D01*
X143896Y131378D02*
X156527D01*
X295518Y118732D02*
Y131378D01*
X194422D02*
X207054D01*
X4948Y55503D02*
Y68149D01*
X232317Y4919D02*
X244948D01*
X68106Y131378D02*
X80738D01*
X295518Y30211D02*
Y42857D01*
Y106087D02*
Y118732D01*
X207054Y131378D02*
X219685D01*
X68106Y4919D02*
X80738D01*
X106001D02*
X118632D01*
X131264D01*
X4948Y42857D02*
Y55503D01*
X156527Y4919D02*
X169159D01*
X207054D02*
X219685D01*
X4948Y118732D02*
Y131378D01*
X295518Y93441D02*
Y106087D01*
X156527Y131378D02*
X169159D01*
X232317D02*
X244948D01*
X4948Y4919D02*
X17580D01*
X4948Y30211D02*
Y42857D01*
X194422Y4919D02*
X207054D01*
X4948Y106087D02*
Y118732D01*
X55475Y131378D02*
X68106D01*
X295518Y17565D02*
Y30211D01*
X219685Y131378D02*
X232317D01*
X55475Y4919D02*
X68106D01*
X80738D02*
X93369D01*
X131264D02*
X143896D01*
X42843Y131378D02*
X55475D01*
X295518Y4919D02*
Y17565D01*
X106001Y131378D02*
X118632D01*
X295518Y80795D02*
Y93441D01*
X244948Y131378D02*
X257580D01*
D41*
X70823Y106319D02*
D03*
X4948Y30211D02*
D03*
X70823Y98576D02*
D03*
X221863Y89590D02*
D03*
Y82449D02*
D03*
X202195Y86892D02*
D03*
X38735Y13208D02*
D03*
X38481Y25711D02*
D03*
X213460Y47029D02*
D03*
X206879D02*
D03*
X187104Y89783D02*
D03*
X68285Y73772D02*
D03*
X187073Y97227D02*
D03*
X90103Y35775D02*
D03*
X238132Y115824D02*
D03*
X247856D02*
D03*
X149605Y108181D02*
D03*
X140773D02*
D03*
X121585Y44465D02*
D03*
X111965D02*
D03*
X92726D02*
D03*
X102346D02*
D03*
X79419Y65701D02*
D03*
X204833Y81188D02*
D03*
X246206Y92079D02*
D03*
X257580Y115824D02*
D03*
X70823Y114037D02*
D03*
X199132Y108777D02*
D03*
X209292Y112841D02*
D03*
X140773Y100516D02*
D03*
X149605D02*
D03*
X244948Y131378D02*
D03*
X232317D02*
D03*
X219685D02*
D03*
X207054D02*
D03*
X194422D02*
D03*
X181790D02*
D03*
X169159D02*
D03*
X156527D02*
D03*
X143896D02*
D03*
X131264D02*
D03*
X118632D02*
D03*
X106001D02*
D03*
X93369D02*
D03*
X80738D02*
D03*
X68106D02*
D03*
X55475D02*
D03*
X42843D02*
D03*
X30212D02*
D03*
X17580D02*
D03*
X4948D02*
D03*
Y4919D02*
D03*
Y17565D02*
D03*
Y55503D02*
D03*
Y42857D02*
D03*
Y80795D02*
D03*
Y68149D02*
D03*
Y118732D02*
D03*
Y93441D02*
D03*
Y106087D02*
D03*
X17580Y4919D02*
D03*
X30212D02*
D03*
X42843D02*
D03*
X55475D02*
D03*
X68106D02*
D03*
X80738D02*
D03*
X93369D02*
D03*
X106001D02*
D03*
X118632D02*
D03*
X131264D02*
D03*
X143896D02*
D03*
X156527D02*
D03*
X169159D02*
D03*
X181790D02*
D03*
X194422D02*
D03*
X207054D02*
D03*
X219685D02*
D03*
X232317D02*
D03*
X244948D02*
D03*
X257580D02*
D03*
X295518D02*
D03*
Y17565D02*
D03*
Y30211D02*
D03*
Y42857D02*
D03*
Y55503D02*
D03*
Y68149D02*
D03*
Y80795D02*
D03*
Y93441D02*
D03*
Y106087D02*
D03*
Y118732D02*
D03*
X257580Y131378D02*
D03*
X295518D02*
D03*
M02*
