G04*
G04 #@! TF.GenerationSoftware,Altium Limited,Altium Designer,23.8.1 (32)*
G04*
G04 Layer_Color=2752767*
%FSLAX44Y44*%
%MOMM*%
G71*
G04*
G04 #@! TF.SameCoordinates,C9A30DB4-BB40-4B38-85DC-7C9B31114FAE*
G04*
G04*
G04 #@! TF.FilePolarity,Positive*
G04*
G01*
G75*
%ADD53C,0.0508*%
%ADD54C,0.0677*%
D53*
X251274Y31117D02*
Y35181D01*
X255338D01*
Y31117D01*
X251274D01*
Y56117D02*
Y60181D01*
X255338D01*
Y56117D01*
X251274D01*
Y76117D02*
Y80181D01*
X255338D01*
Y76117D01*
X251274D01*
Y101117D02*
Y105181D01*
X255338D01*
Y101117D01*
X251274D01*
X274306Y9117D02*
X272274Y13181D01*
X276338D01*
X274306Y9117D01*
Y123117D02*
X272274Y127181D01*
X276338D01*
X274306Y123117D01*
X227323Y18538D02*
Y17522D01*
X229355D01*
Y18538D01*
X230371D01*
Y20570D01*
X229355D01*
Y21586D01*
X227323D01*
Y20570D01*
X226307D01*
Y18538D01*
X227323D01*
X117764Y64041D02*
Y63025D01*
X119796D01*
Y64041D01*
X120812D01*
Y66073D01*
X119796D01*
Y67089D01*
X117764D01*
Y66073D01*
X116748D01*
Y64041D01*
X117764D01*
X118094Y79632D02*
Y78616D01*
X120126D01*
Y79632D01*
X121142D01*
Y81664D01*
X120126D01*
Y82680D01*
X118094D01*
Y81664D01*
X117078D01*
Y79632D01*
X118094D01*
X217839Y62204D02*
Y61189D01*
X219871D01*
Y62204D01*
X220887D01*
Y64236D01*
X219871D01*
Y65252D01*
X217839D01*
Y64236D01*
X216823D01*
Y62204D01*
X217839D01*
X197944Y64201D02*
Y63185D01*
X199976D01*
Y64201D01*
X200992D01*
Y66233D01*
X199976D01*
Y67249D01*
X197944D01*
Y66233D01*
X196928D01*
Y64201D01*
X197944D01*
Y70041D02*
Y69025D01*
X199976D01*
Y70041D01*
X200992D01*
Y72073D01*
X199976D01*
Y73089D01*
X197944D01*
Y72073D01*
X196928D01*
Y70041D01*
X197944D01*
X52691Y77764D02*
Y76748D01*
X54724D01*
Y77764D01*
X55739D01*
Y79796D01*
X54724D01*
Y80812D01*
X52691D01*
Y79796D01*
X51676D01*
Y77764D01*
X52691D01*
X69807Y105303D02*
Y104287D01*
X71839D01*
Y105303D01*
X72855D01*
Y107335D01*
X71839D01*
Y108351D01*
X69807D01*
Y107335D01*
X68791D01*
Y105303D01*
X69807D01*
X59016Y97560D02*
Y96544D01*
X61048D01*
Y97560D01*
X62064D01*
Y99592D01*
X61048D01*
Y100608D01*
X59016D01*
Y99592D01*
X58000D01*
Y97560D01*
X59016D01*
X93706Y114724D02*
Y113708D01*
X95738D01*
Y114724D01*
X96754D01*
Y116756D01*
X95738D01*
Y117772D01*
X93706D01*
Y116756D01*
X92690D01*
Y114724D01*
X93706D01*
X59016Y105303D02*
Y104287D01*
X61048D01*
Y105303D01*
X62064D01*
Y107335D01*
X61048D01*
Y108351D01*
X59016D01*
Y107335D01*
X58000D01*
Y105303D01*
X59016D01*
X226435Y108370D02*
Y107354D01*
X228467D01*
Y108370D01*
X229483D01*
Y110402D01*
X228467D01*
Y111418D01*
X226435D01*
Y110402D01*
X225419D01*
Y108370D01*
X226435D01*
X217705Y108186D02*
Y107170D01*
X219736D01*
Y108186D01*
X220753D01*
Y110218D01*
X219736D01*
Y111234D01*
X217705D01*
Y110218D01*
X216688D01*
Y108186D01*
X217705D01*
X3932Y29195D02*
Y28179D01*
X5964D01*
Y29195D01*
X6980D01*
Y31227D01*
X5964D01*
Y32243D01*
X3932D01*
Y31227D01*
X2916D01*
Y29195D01*
X3932D01*
X87168Y113021D02*
Y112005D01*
X89199D01*
Y113021D01*
X90216D01*
Y115053D01*
X89199D01*
Y116069D01*
X87168D01*
Y115053D01*
X86152D01*
Y113021D01*
X87168D01*
Y105303D02*
Y104287D01*
X89199D01*
Y105303D01*
X90216D01*
Y107335D01*
X89199D01*
Y108351D01*
X87168D01*
Y107335D01*
X86152D01*
Y105303D01*
X87168D01*
Y97585D02*
Y96569D01*
X89199D01*
Y97585D01*
X90216D01*
Y99618D01*
X89199D01*
Y100633D01*
X87168D01*
Y99618D01*
X86152D01*
Y97585D01*
X87168D01*
X63097Y88846D02*
Y87830D01*
X65129D01*
Y88846D01*
X66145D01*
Y90878D01*
X65129D01*
Y91894D01*
X63097D01*
Y90878D01*
X62081D01*
Y88846D01*
X63097D01*
X69807Y97560D02*
Y96544D01*
X71839D01*
Y97560D01*
X72855D01*
Y99592D01*
X71839D01*
Y100608D01*
X69807D01*
Y99592D01*
X68791D01*
Y97560D01*
X69807D01*
X220847Y88574D02*
Y87558D01*
X222879D01*
Y88574D01*
X223895D01*
Y90606D01*
X222879D01*
Y91622D01*
X220847D01*
Y90606D01*
X219831D01*
Y88574D01*
X220847D01*
Y81433D02*
Y80416D01*
X222879D01*
Y81433D01*
X223895D01*
Y83464D01*
X222879D01*
Y84480D01*
X220847D01*
Y83464D01*
X219831D01*
Y81433D01*
X220847D01*
X201179Y85876D02*
Y84860D01*
X203211D01*
Y85876D01*
X204227D01*
Y87908D01*
X203211D01*
Y88924D01*
X201179D01*
Y87908D01*
X200163D01*
Y85876D01*
X201179D01*
X37719Y12192D02*
Y11176D01*
X39751D01*
Y12192D01*
X40767D01*
Y14224D01*
X39751D01*
Y15240D01*
X37719D01*
Y14224D01*
X36703D01*
Y12192D01*
X37719D01*
X37465Y24695D02*
Y23679D01*
X39497D01*
Y24695D01*
X40513D01*
Y26727D01*
X39497D01*
Y27743D01*
X37465D01*
Y26727D01*
X36449D01*
Y24695D01*
X37465D01*
X212444Y46013D02*
Y44997D01*
X214476D01*
Y46013D01*
X215492D01*
Y48045D01*
X214476D01*
Y49061D01*
X212444D01*
Y48045D01*
X211428D01*
Y46013D01*
X212444D01*
X205863D02*
Y44997D01*
X207895D01*
Y46013D01*
X208911D01*
Y48045D01*
X207895D01*
Y49061D01*
X205863D01*
Y48045D01*
X204847D01*
Y46013D01*
X205863D01*
X209975Y18770D02*
Y17754D01*
X212007D01*
Y18770D01*
X213023D01*
Y20802D01*
X212007D01*
Y21818D01*
X209975D01*
Y20802D01*
X208959D01*
Y18770D01*
X209975D01*
X231323Y42132D02*
Y41116D01*
X233355D01*
Y42132D01*
X234371D01*
Y44164D01*
X233355D01*
Y45180D01*
X231323D01*
Y44164D01*
X230307D01*
Y42132D01*
X231323D01*
X240772Y35798D02*
Y34782D01*
X242803D01*
Y35798D01*
X243820D01*
Y37830D01*
X242803D01*
Y38846D01*
X240772D01*
Y37830D01*
X239755D01*
Y35798D01*
X240772D01*
X186088Y88767D02*
Y87752D01*
X188120D01*
Y88767D01*
X189136D01*
Y90800D01*
X188120D01*
Y91816D01*
X186088D01*
Y90800D01*
X185072D01*
Y88767D01*
X186088D01*
X67269Y72756D02*
Y71740D01*
X69301D01*
Y72756D01*
X70317D01*
Y74788D01*
X69301D01*
Y75804D01*
X67269D01*
Y74788D01*
X66253D01*
Y72756D01*
X67269D01*
X80582Y72705D02*
Y71689D01*
X82614D01*
Y72705D01*
X83630D01*
Y74737D01*
X82614D01*
Y75753D01*
X80582D01*
Y74737D01*
X79566D01*
Y72705D01*
X80582D01*
X186057Y96211D02*
Y95195D01*
X188089D01*
Y96211D01*
X189105D01*
Y98243D01*
X188089D01*
Y99259D01*
X186057D01*
Y98243D01*
X185041D01*
Y96211D01*
X186057D01*
X210280Y98563D02*
Y97547D01*
X212312D01*
Y98563D01*
X213328D01*
Y100595D01*
X212312D01*
Y101611D01*
X210280D01*
Y100595D01*
X209264D01*
Y98563D01*
X210280D01*
X110176Y58585D02*
Y57569D01*
X112208D01*
Y58585D01*
X113224D01*
Y60617D01*
X112208D01*
Y61633D01*
X110176D01*
Y60617D01*
X109160D01*
Y58585D01*
X110176D01*
X103310Y51178D02*
Y50162D01*
X105342D01*
Y51178D01*
X106358D01*
Y53210D01*
X105342D01*
Y54226D01*
X103310D01*
Y53210D01*
X102294D01*
Y51178D01*
X103310D01*
X111228Y72225D02*
Y71209D01*
X113260D01*
Y72225D01*
X114276D01*
Y74257D01*
X113260D01*
Y75273D01*
X111228D01*
Y74257D01*
X110212D01*
Y72225D01*
X111228D01*
X104362Y64818D02*
Y63802D01*
X106394D01*
Y64818D01*
X107410D01*
Y66850D01*
X106394D01*
Y67866D01*
X104362D01*
Y66850D01*
X103346D01*
Y64818D01*
X104362D01*
X191780Y46132D02*
Y45116D01*
X193812D01*
Y46132D01*
X194828D01*
Y48164D01*
X193812D01*
Y49180D01*
X191780D01*
Y48164D01*
X190764D01*
Y46132D01*
X191780D01*
X178879Y20572D02*
Y19556D01*
X180911D01*
Y20572D01*
X181927D01*
Y22604D01*
X180911D01*
Y23620D01*
X178879D01*
Y22604D01*
X177863D01*
Y20572D01*
X178879D01*
X170271D02*
Y19556D01*
X172303D01*
Y20572D01*
X173319D01*
Y22604D01*
X172303D01*
Y23620D01*
X170271D01*
Y22604D01*
X169255D01*
Y20572D01*
X170271D01*
X96306Y34706D02*
Y33691D01*
X98338D01*
Y34706D01*
X99354D01*
Y36739D01*
X98338D01*
Y37754D01*
X96306D01*
Y36739D01*
X95290D01*
Y34706D01*
X96306D01*
X73038Y35222D02*
Y34207D01*
X75070D01*
Y35222D01*
X76086D01*
Y37255D01*
X75070D01*
Y38270D01*
X73038D01*
Y37255D01*
X72022D01*
Y35222D01*
X73038D01*
X133015Y33227D02*
Y32211D01*
X135047D01*
Y33227D01*
X136063D01*
Y35259D01*
X135047D01*
Y36275D01*
X133015D01*
Y35259D01*
X131999D01*
Y33227D01*
X133015D01*
X97497Y57411D02*
Y56395D01*
X99529D01*
Y57411D01*
X100545D01*
Y59443D01*
X99529D01*
Y60459D01*
X97497D01*
Y59443D01*
X96481D01*
Y57411D01*
X97497D01*
X217839Y72519D02*
Y71503D01*
X219871D01*
Y72519D01*
X220887D01*
Y74551D01*
X219871D01*
Y75567D01*
X217839D01*
Y74551D01*
X216823D01*
Y72519D01*
X217839D01*
X59500Y35427D02*
Y34411D01*
X61532D01*
Y35427D01*
X62548D01*
Y37459D01*
X61532D01*
Y38475D01*
X59500D01*
Y37459D01*
X58484D01*
Y35427D01*
X59500D01*
X127635Y38612D02*
Y37596D01*
X129667D01*
Y38612D01*
X130683D01*
Y40644D01*
X129667D01*
Y41660D01*
X127635D01*
Y40644D01*
X126619D01*
Y38612D01*
X127635D01*
X89087Y34759D02*
Y33743D01*
X91119D01*
Y34759D01*
X92135D01*
Y36791D01*
X91119D01*
Y37807D01*
X89087D01*
Y36791D01*
X88071D01*
Y34759D01*
X89087D01*
X237115Y114808D02*
Y113792D01*
X239147D01*
Y114808D01*
X240163D01*
Y116840D01*
X239147D01*
Y117856D01*
X237115D01*
Y116840D01*
X236099D01*
Y114808D01*
X237115D01*
X246840D02*
Y113792D01*
X248872D01*
Y114808D01*
X249888D01*
Y116840D01*
X248872D01*
Y117856D01*
X246840D01*
Y116840D01*
X245824D01*
Y114808D01*
X246840D01*
X148589Y107164D02*
Y106149D01*
X150621D01*
Y107164D01*
X151637D01*
Y109197D01*
X150621D01*
Y110212D01*
X148589D01*
Y109197D01*
X147573D01*
Y107164D01*
X148589D01*
X139757D02*
Y106149D01*
X141789D01*
Y107164D01*
X142805D01*
Y109197D01*
X141789D01*
Y110212D01*
X139757D01*
Y109197D01*
X138741D01*
Y107164D01*
X139757D01*
X120569Y43449D02*
Y42433D01*
X122601D01*
Y43449D01*
X123617D01*
Y45481D01*
X122601D01*
Y46497D01*
X120569D01*
Y45481D01*
X119553D01*
Y43449D01*
X120569D01*
X110949D02*
Y42433D01*
X112981D01*
Y43449D01*
X113997D01*
Y45481D01*
X112981D01*
Y46497D01*
X110949D01*
Y45481D01*
X109933D01*
Y43449D01*
X110949D01*
X91711D02*
Y42433D01*
X93743D01*
Y43449D01*
X94759D01*
Y45481D01*
X93743D01*
Y46497D01*
X91711D01*
Y45481D01*
X90695D01*
Y43449D01*
X91711D01*
X101330D02*
Y42433D01*
X103362D01*
Y43449D01*
X104378D01*
Y45481D01*
X103362D01*
Y46497D01*
X101330D01*
Y45481D01*
X100314D01*
Y43449D01*
X101330D01*
X82091D02*
Y42433D01*
X84123D01*
Y43449D01*
X85139D01*
Y45481D01*
X84123D01*
Y46497D01*
X82091D01*
Y45481D01*
X81075D01*
Y43449D01*
X82091D01*
X51856Y49655D02*
Y48639D01*
X53888D01*
Y49655D01*
X54904D01*
Y51687D01*
X53888D01*
Y52703D01*
X51856D01*
Y51687D01*
X50840D01*
Y49655D01*
X51856D01*
X50439Y64528D02*
Y63512D01*
X52471D01*
Y64528D01*
X53487D01*
Y66560D01*
X52471D01*
Y67575D01*
X50439D01*
Y66560D01*
X49423D01*
Y64528D01*
X50439D01*
X78403Y64686D02*
Y63670D01*
X80435D01*
Y64686D01*
X81451D01*
Y66718D01*
X80435D01*
Y67733D01*
X78403D01*
Y66718D01*
X77387D01*
Y64686D01*
X78403D01*
X85592Y51178D02*
Y50162D01*
X87624D01*
Y51178D01*
X88640D01*
Y53210D01*
X87624D01*
Y54226D01*
X85592D01*
Y53210D01*
X84576D01*
Y51178D01*
X85592D01*
X152720Y49574D02*
Y48558D01*
X154752D01*
Y49574D01*
X155768D01*
Y51606D01*
X154752D01*
Y52622D01*
X152720D01*
Y51606D01*
X151704D01*
Y49574D01*
X152720D01*
X130635Y49646D02*
Y48630D01*
X132667D01*
Y49646D01*
X133683D01*
Y51678D01*
X132667D01*
Y52694D01*
X130635D01*
Y51678D01*
X129619D01*
Y49646D01*
X130635D01*
X151027Y59700D02*
Y58684D01*
X153059D01*
Y59700D01*
X154075D01*
Y61732D01*
X153059D01*
Y62748D01*
X151027D01*
Y61732D01*
X150011D01*
Y59700D01*
X151027D01*
X134013Y74633D02*
Y73618D01*
X136045D01*
Y74633D01*
X137061D01*
Y76666D01*
X136045D01*
Y77681D01*
X134013D01*
Y76666D01*
X132997D01*
Y74633D01*
X134013D01*
X203817Y80172D02*
Y79156D01*
X205849D01*
Y80172D01*
X206865D01*
Y82204D01*
X205849D01*
Y83220D01*
X203817D01*
Y82204D01*
X202801D01*
Y80172D01*
X203817D01*
X245190Y91063D02*
Y90047D01*
X247222D01*
Y91063D01*
X248238D01*
Y93095D01*
X247222D01*
Y94111D01*
X245190D01*
Y93095D01*
X244174D01*
Y91063D01*
X245190D01*
X256564Y114808D02*
Y113792D01*
X258596D01*
Y114808D01*
X259612D01*
Y116840D01*
X258596D01*
Y117856D01*
X256564D01*
Y116840D01*
X255548D01*
Y114808D01*
X256564D01*
X69807Y113021D02*
Y112005D01*
X71839D01*
Y113021D01*
X72855D01*
Y115053D01*
X71839D01*
Y116069D01*
X69807D01*
Y115053D01*
X68791D01*
Y113021D01*
X69807D01*
X198116Y107761D02*
Y106745D01*
X200148D01*
Y107761D01*
X201164D01*
Y109793D01*
X200148D01*
Y110809D01*
X198116D01*
Y109793D01*
X197100D01*
Y107761D01*
X198116D01*
X208276Y111825D02*
Y110809D01*
X210308D01*
Y111825D01*
X211324D01*
Y113857D01*
X210308D01*
Y114873D01*
X208276D01*
Y113857D01*
X207260D01*
Y111825D01*
X208276D01*
X222984Y122661D02*
Y121645D01*
X225016D01*
Y122661D01*
X226032D01*
Y124693D01*
X225016D01*
Y125709D01*
X222984D01*
Y124693D01*
X221968D01*
Y122661D01*
X222984D01*
X210338D02*
Y121645D01*
X212370D01*
Y122661D01*
X213386D01*
Y124693D01*
X212370D01*
Y125709D01*
X210338D01*
Y124693D01*
X209322D01*
Y122661D01*
X210338D01*
X197693D02*
Y121645D01*
X199725D01*
Y122661D01*
X200741D01*
Y124693D01*
X199725D01*
Y125709D01*
X197693D01*
Y124693D01*
X196677D01*
Y122661D01*
X197693D01*
X185047D02*
Y121645D01*
X187079D01*
Y122661D01*
X188095D01*
Y124693D01*
X187079D01*
Y125709D01*
X185047D01*
Y124693D01*
X184031D01*
Y122661D01*
X185047D01*
X134463D02*
Y121645D01*
X136495D01*
Y122661D01*
X137511D01*
Y124693D01*
X136495D01*
Y125709D01*
X134463D01*
Y124693D01*
X133447D01*
Y122661D01*
X134463D01*
X147109D02*
Y121645D01*
X149141D01*
Y122661D01*
X150157D01*
Y124693D01*
X149141D01*
Y125709D01*
X147109D01*
Y124693D01*
X146093D01*
Y122661D01*
X147109D01*
X172401D02*
Y121645D01*
X174433D01*
Y122661D01*
X175449D01*
Y124693D01*
X174433D01*
Y125709D01*
X172401D01*
Y124693D01*
X171385D01*
Y122661D01*
X172401D01*
X160462D02*
Y121645D01*
X162494D01*
Y122661D01*
X163510D01*
Y124693D01*
X162494D01*
Y125709D01*
X160462D01*
Y124693D01*
X159446D01*
Y122661D01*
X160462D01*
Y115398D02*
Y114382D01*
X162494D01*
Y115398D01*
X163510D01*
Y117430D01*
X162494D01*
Y118446D01*
X160462D01*
Y117430D01*
X159446D01*
Y115398D01*
X160462D01*
X270615Y29195D02*
Y28179D01*
X272647D01*
Y29195D01*
X273663D01*
Y31227D01*
X272647D01*
Y32243D01*
X270615D01*
Y31227D01*
X269599D01*
Y29195D01*
X270615D01*
X283261D02*
Y28179D01*
X285293D01*
Y29195D01*
X286309D01*
Y31227D01*
X285293D01*
Y32243D01*
X283261D01*
Y31227D01*
X282245D01*
Y29195D01*
X283261D01*
Y41841D02*
Y40825D01*
X285293D01*
Y41841D01*
X286309D01*
Y43873D01*
X285293D01*
Y44889D01*
X283261D01*
Y43873D01*
X282245D01*
Y41841D01*
X283261D01*
Y105070D02*
Y104054D01*
X285293D01*
Y105070D01*
X286309D01*
Y107102D01*
X285293D01*
Y108118D01*
X283261D01*
Y107102D01*
X282245D01*
Y105070D01*
X283261D01*
Y92425D02*
Y91409D01*
X285293D01*
Y92425D01*
X286309D01*
Y94457D01*
X285293D01*
Y95473D01*
X283261D01*
Y94457D01*
X282245D01*
Y92425D01*
X283261D01*
Y54487D02*
Y53471D01*
X285293D01*
Y54487D01*
X286309D01*
Y56519D01*
X285293D01*
Y57535D01*
X283261D01*
Y56519D01*
X282245D01*
Y54487D01*
X283261D01*
Y67133D02*
Y66117D01*
X285293D01*
Y67133D01*
X286309D01*
Y69165D01*
X285293D01*
Y70181D01*
X283261D01*
Y69165D01*
X282245D01*
Y67133D01*
X283261D01*
Y79779D02*
Y78763D01*
X285293D01*
Y79779D01*
X286309D01*
Y81811D01*
X285293D01*
Y82827D01*
X283261D01*
Y81811D01*
X282245D01*
Y79779D01*
X283261D01*
X139757Y99500D02*
Y98484D01*
X141789D01*
Y99500D01*
X142805D01*
Y101532D01*
X141789D01*
Y102548D01*
X139757D01*
Y101532D01*
X138741D01*
Y99500D01*
X139757D01*
X148589D02*
Y98484D01*
X150621D01*
Y99500D01*
X151637D01*
Y101532D01*
X150621D01*
Y102548D01*
X148589D01*
Y101532D01*
X147573D01*
Y99500D01*
X148589D01*
X243932Y130362D02*
Y129346D01*
X245964D01*
Y130362D01*
X246980D01*
Y132394D01*
X245964D01*
Y133410D01*
X243932D01*
Y132394D01*
X242916D01*
Y130362D01*
X243932D01*
X231301D02*
Y129346D01*
X233333D01*
Y130362D01*
X234349D01*
Y132394D01*
X233333D01*
Y133410D01*
X231301D01*
Y132394D01*
X230285D01*
Y130362D01*
X231301D01*
X218669D02*
Y129346D01*
X220701D01*
Y130362D01*
X221717D01*
Y132394D01*
X220701D01*
Y133410D01*
X218669D01*
Y132394D01*
X217653D01*
Y130362D01*
X218669D01*
X206038D02*
Y129346D01*
X208069D01*
Y130362D01*
X209086D01*
Y132394D01*
X208069D01*
Y133410D01*
X206038D01*
Y132394D01*
X205021D01*
Y130362D01*
X206038D01*
X193406D02*
Y129346D01*
X195438D01*
Y130362D01*
X196454D01*
Y132394D01*
X195438D01*
Y133410D01*
X193406D01*
Y132394D01*
X192390D01*
Y130362D01*
X193406D01*
X180774D02*
Y129346D01*
X182806D01*
Y130362D01*
X183822D01*
Y132394D01*
X182806D01*
Y133410D01*
X180774D01*
Y132394D01*
X179758D01*
Y130362D01*
X180774D01*
X168143D02*
Y129346D01*
X170175D01*
Y130362D01*
X171191D01*
Y132394D01*
X170175D01*
Y133410D01*
X168143D01*
Y132394D01*
X167127D01*
Y130362D01*
X168143D01*
X155511D02*
Y129346D01*
X157543D01*
Y130362D01*
X158559D01*
Y132394D01*
X157543D01*
Y133410D01*
X155511D01*
Y132394D01*
X154495D01*
Y130362D01*
X155511D01*
X142880D02*
Y129346D01*
X144912D01*
Y130362D01*
X145928D01*
Y132394D01*
X144912D01*
Y133410D01*
X142880D01*
Y132394D01*
X141864D01*
Y130362D01*
X142880D01*
X130248D02*
Y129346D01*
X132280D01*
Y130362D01*
X133296D01*
Y132394D01*
X132280D01*
Y133410D01*
X130248D01*
Y132394D01*
X129232D01*
Y130362D01*
X130248D01*
X117617D02*
Y129346D01*
X119649D01*
Y130362D01*
X120665D01*
Y132394D01*
X119649D01*
Y133410D01*
X117617D01*
Y132394D01*
X116601D01*
Y130362D01*
X117617D01*
X104985D02*
Y129346D01*
X107017D01*
Y130362D01*
X108033D01*
Y132394D01*
X107017D01*
Y133410D01*
X104985D01*
Y132394D01*
X103969D01*
Y130362D01*
X104985D01*
X92353D02*
Y129346D01*
X94385D01*
Y130362D01*
X95401D01*
Y132394D01*
X94385D01*
Y133410D01*
X92353D01*
Y132394D01*
X91337D01*
Y130362D01*
X92353D01*
X79722D02*
Y129346D01*
X81754D01*
Y130362D01*
X82770D01*
Y132394D01*
X81754D01*
Y133410D01*
X79722D01*
Y132394D01*
X78706D01*
Y130362D01*
X79722D01*
X67090D02*
Y129346D01*
X69122D01*
Y130362D01*
X70138D01*
Y132394D01*
X69122D01*
Y133410D01*
X67090D01*
Y132394D01*
X66074D01*
Y130362D01*
X67090D01*
X54459D02*
Y129346D01*
X56491D01*
Y130362D01*
X57507D01*
Y132394D01*
X56491D01*
Y133410D01*
X54459D01*
Y132394D01*
X53443D01*
Y130362D01*
X54459D01*
X41827D02*
Y129346D01*
X43859D01*
Y130362D01*
X44875D01*
Y132394D01*
X43859D01*
Y133410D01*
X41827D01*
Y132394D01*
X40811D01*
Y130362D01*
X41827D01*
X29195D02*
Y129346D01*
X31228D01*
Y130362D01*
X32243D01*
Y132394D01*
X31228D01*
Y133410D01*
X29195D01*
Y132394D01*
X28180D01*
Y130362D01*
X29195D01*
X16564D02*
Y129346D01*
X18596D01*
Y130362D01*
X19612D01*
Y132394D01*
X18596D01*
Y133410D01*
X16564D01*
Y132394D01*
X15548D01*
Y130362D01*
X16564D01*
X3932D02*
Y129346D01*
X5964D01*
Y130362D01*
X6980D01*
Y132394D01*
X5964D01*
Y133410D01*
X3932D01*
Y132394D01*
X2916D01*
Y130362D01*
X3932D01*
Y3903D02*
Y2887D01*
X5964D01*
Y3903D01*
X6980D01*
Y5935D01*
X5964D01*
Y6951D01*
X3932D01*
Y5935D01*
X2916D01*
Y3903D01*
X3932D01*
Y16549D02*
Y15533D01*
X5964D01*
Y16549D01*
X6980D01*
Y18581D01*
X5964D01*
Y19597D01*
X3932D01*
Y18581D01*
X2916D01*
Y16549D01*
X3932D01*
Y54487D02*
Y53471D01*
X5964D01*
Y54487D01*
X6980D01*
Y56519D01*
X5964D01*
Y57535D01*
X3932D01*
Y56519D01*
X2916D01*
Y54487D01*
X3932D01*
Y41841D02*
Y40825D01*
X5964D01*
Y41841D01*
X6980D01*
Y43873D01*
X5964D01*
Y44889D01*
X3932D01*
Y43873D01*
X2916D01*
Y41841D01*
X3932D01*
Y79779D02*
Y78763D01*
X5964D01*
Y79779D01*
X6980D01*
Y81811D01*
X5964D01*
Y82827D01*
X3932D01*
Y81811D01*
X2916D01*
Y79779D01*
X3932D01*
Y67133D02*
Y66117D01*
X5964D01*
Y67133D01*
X6980D01*
Y69165D01*
X5964D01*
Y70181D01*
X3932D01*
Y69165D01*
X2916D01*
Y67133D01*
X3932D01*
Y117716D02*
Y116700D01*
X5964D01*
Y117716D01*
X6980D01*
Y119748D01*
X5964D01*
Y120764D01*
X3932D01*
Y119748D01*
X2916D01*
Y117716D01*
X3932D01*
Y92425D02*
Y91409D01*
X5964D01*
Y92425D01*
X6980D01*
Y94457D01*
X5964D01*
Y95473D01*
X3932D01*
Y94457D01*
X2916D01*
Y92425D01*
X3932D01*
Y105070D02*
Y104054D01*
X5964D01*
Y105070D01*
X6980D01*
Y107102D01*
X5964D01*
Y108118D01*
X3932D01*
Y107102D01*
X2916D01*
Y105070D01*
X3932D01*
X16564Y3903D02*
Y2887D01*
X18596D01*
Y3903D01*
X19612D01*
Y5935D01*
X18596D01*
Y6951D01*
X16564D01*
Y5935D01*
X15548D01*
Y3903D01*
X16564D01*
X29195D02*
Y2887D01*
X31228D01*
Y3903D01*
X32243D01*
Y5935D01*
X31228D01*
Y6951D01*
X29195D01*
Y5935D01*
X28180D01*
Y3903D01*
X29195D01*
X41827D02*
Y2887D01*
X43859D01*
Y3903D01*
X44875D01*
Y5935D01*
X43859D01*
Y6951D01*
X41827D01*
Y5935D01*
X40811D01*
Y3903D01*
X41827D01*
X54459D02*
Y2887D01*
X56491D01*
Y3903D01*
X57507D01*
Y5935D01*
X56491D01*
Y6951D01*
X54459D01*
Y5935D01*
X53443D01*
Y3903D01*
X54459D01*
X67090D02*
Y2887D01*
X69122D01*
Y3903D01*
X70138D01*
Y5935D01*
X69122D01*
Y6951D01*
X67090D01*
Y5935D01*
X66074D01*
Y3903D01*
X67090D01*
X79722D02*
Y2887D01*
X81754D01*
Y3903D01*
X82770D01*
Y5935D01*
X81754D01*
Y6951D01*
X79722D01*
Y5935D01*
X78706D01*
Y3903D01*
X79722D01*
X92353D02*
Y2887D01*
X94385D01*
Y3903D01*
X95401D01*
Y5935D01*
X94385D01*
Y6951D01*
X92353D01*
Y5935D01*
X91337D01*
Y3903D01*
X92353D01*
X104985D02*
Y2887D01*
X107017D01*
Y3903D01*
X108033D01*
Y5935D01*
X107017D01*
Y6951D01*
X104985D01*
Y5935D01*
X103969D01*
Y3903D01*
X104985D01*
X117617D02*
Y2887D01*
X119649D01*
Y3903D01*
X120665D01*
Y5935D01*
X119649D01*
Y6951D01*
X117617D01*
Y5935D01*
X116601D01*
Y3903D01*
X117617D01*
X130248D02*
Y2887D01*
X132280D01*
Y3903D01*
X133296D01*
Y5935D01*
X132280D01*
Y6951D01*
X130248D01*
Y5935D01*
X129232D01*
Y3903D01*
X130248D01*
X142880D02*
Y2887D01*
X144912D01*
Y3903D01*
X145928D01*
Y5935D01*
X144912D01*
Y6951D01*
X142880D01*
Y5935D01*
X141864D01*
Y3903D01*
X142880D01*
X155511D02*
Y2887D01*
X157543D01*
Y3903D01*
X158559D01*
Y5935D01*
X157543D01*
Y6951D01*
X155511D01*
Y5935D01*
X154495D01*
Y3903D01*
X155511D01*
X168143D02*
Y2887D01*
X170175D01*
Y3903D01*
X171191D01*
Y5935D01*
X170175D01*
Y6951D01*
X168143D01*
Y5935D01*
X167127D01*
Y3903D01*
X168143D01*
X180774D02*
Y2887D01*
X182806D01*
Y3903D01*
X183822D01*
Y5935D01*
X182806D01*
Y6951D01*
X180774D01*
Y5935D01*
X179758D01*
Y3903D01*
X180774D01*
X193406D02*
Y2887D01*
X195438D01*
Y3903D01*
X196454D01*
Y5935D01*
X195438D01*
Y6951D01*
X193406D01*
Y5935D01*
X192390D01*
Y3903D01*
X193406D01*
X206038D02*
Y2887D01*
X208069D01*
Y3903D01*
X209086D01*
Y5935D01*
X208069D01*
Y6951D01*
X206038D01*
Y5935D01*
X205021D01*
Y3903D01*
X206038D01*
X218669D02*
Y2887D01*
X220701D01*
Y3903D01*
X221717D01*
Y5935D01*
X220701D01*
Y6951D01*
X218669D01*
Y5935D01*
X217653D01*
Y3903D01*
X218669D01*
X231301D02*
Y2887D01*
X233333D01*
Y3903D01*
X234349D01*
Y5935D01*
X233333D01*
Y6951D01*
X231301D01*
Y5935D01*
X230285D01*
Y3903D01*
X231301D01*
X243932D02*
Y2887D01*
X245964D01*
Y3903D01*
X246980D01*
Y5935D01*
X245964D01*
Y6951D01*
X243932D01*
Y5935D01*
X242916D01*
Y3903D01*
X243932D01*
X256564D02*
Y2887D01*
X258596D01*
Y3903D01*
X259612D01*
Y5935D01*
X258596D01*
Y6951D01*
X256564D01*
Y5935D01*
X255548D01*
Y3903D01*
X256564D01*
X294502D02*
Y2887D01*
X296534D01*
Y3903D01*
X297550D01*
Y5935D01*
X296534D01*
Y6951D01*
X294502D01*
Y5935D01*
X293486D01*
Y3903D01*
X294502D01*
Y16549D02*
Y15533D01*
X296534D01*
Y16549D01*
X297550D01*
Y18581D01*
X296534D01*
Y19597D01*
X294502D01*
Y18581D01*
X293486D01*
Y16549D01*
X294502D01*
Y29195D02*
Y28179D01*
X296534D01*
Y29195D01*
X297550D01*
Y31227D01*
X296534D01*
Y32243D01*
X294502D01*
Y31227D01*
X293486D01*
Y29195D01*
X294502D01*
Y41841D02*
Y40825D01*
X296534D01*
Y41841D01*
X297550D01*
Y43873D01*
X296534D01*
Y44889D01*
X294502D01*
Y43873D01*
X293486D01*
Y41841D01*
X294502D01*
Y54487D02*
Y53471D01*
X296534D01*
Y54487D01*
X297550D01*
Y56519D01*
X296534D01*
Y57535D01*
X294502D01*
Y56519D01*
X293486D01*
Y54487D01*
X294502D01*
Y67133D02*
Y66117D01*
X296534D01*
Y67133D01*
X297550D01*
Y69165D01*
X296534D01*
Y70181D01*
X294502D01*
Y69165D01*
X293486D01*
Y67133D01*
X294502D01*
Y79779D02*
Y78763D01*
X296534D01*
Y79779D01*
X297550D01*
Y81811D01*
X296534D01*
Y82827D01*
X294502D01*
Y81811D01*
X293486D01*
Y79779D01*
X294502D01*
Y92425D02*
Y91409D01*
X296534D01*
Y92425D01*
X297550D01*
Y94457D01*
X296534D01*
Y95473D01*
X294502D01*
Y94457D01*
X293486D01*
Y92425D01*
X294502D01*
Y105070D02*
Y104054D01*
X296534D01*
Y105070D01*
X297550D01*
Y107102D01*
X296534D01*
Y108118D01*
X294502D01*
Y107102D01*
X293486D01*
Y105070D01*
X294502D01*
Y117716D02*
Y116700D01*
X296534D01*
Y117716D01*
X297550D01*
Y119748D01*
X296534D01*
Y120764D01*
X294502D01*
Y119748D01*
X293486D01*
Y117716D01*
X294502D01*
X256564Y130362D02*
Y129346D01*
X258596D01*
Y130362D01*
X259612D01*
Y132394D01*
X258596D01*
Y133410D01*
X256564D01*
Y132394D01*
X255548D01*
Y130362D01*
X256564D01*
X294502D02*
Y129346D01*
X296534D01*
Y130362D01*
X297550D01*
Y132394D01*
X296534D01*
Y133410D01*
X294502D01*
Y132394D01*
X293486D01*
Y130362D01*
X294502D01*
D54*
X276338Y45649D02*
G03*
X276338Y45649I-2032J0D01*
G01*
Y90649D02*
G03*
X276338Y90649I-2032J0D01*
G01*
M02*
