G04*
G04 #@! TF.GenerationSoftware,Altium Limited,Altium Designer,23.8.1 (32)*
G04*
G04 Layer_Color=255*
%FSLAX44Y44*%
%MOMM*%
G71*
G04*
G04 #@! TF.SameCoordinates,C9A30DB4-BB40-4B38-85DC-7C9B31114FAE*
G04*
G04*
G04 #@! TF.FilePolarity,Positive*
G04*
G01*
G75*
%ADD16R,2.0000X1.8000*%
%ADD17R,0.5000X0.5000*%
%ADD18R,0.5000X1.0750*%
%ADD19R,0.5080X1.1684*%
%ADD20R,0.7620X0.7620*%
%ADD21R,1.1500X1.4000*%
%ADD22O,1.8000X0.2800*%
%ADD23O,0.2800X1.8000*%
%ADD24R,1.1500X0.6000*%
%ADD33C,1.4200*%
%ADD34R,1.4200X1.4200*%
%ADD35C,1.1000*%
%ADD36O,3.0000X1.5000*%
D16*
X23998Y116649D02*
D03*
Y43899D02*
D03*
Y68149D02*
D03*
Y92399D02*
D03*
Y19649D02*
D03*
D17*
X218804Y103817D02*
D03*
Y93817D02*
D03*
X227451D02*
D03*
Y103817D02*
D03*
X167448Y104579D02*
D03*
Y94579D02*
D03*
X158801Y104579D02*
D03*
Y94579D02*
D03*
X161475Y27648D02*
D03*
Y37648D02*
D03*
Y58648D02*
D03*
Y48648D02*
D03*
D18*
X237975Y110858D02*
D03*
Y87618D02*
D03*
D19*
X210991Y53723D02*
D03*
X220491D02*
D03*
X229991D02*
D03*
Y32387D02*
D03*
X220491D02*
D03*
X210991D02*
D03*
D20*
X227656Y68149D02*
D03*
X212916D02*
D03*
D21*
X176796Y32148D02*
D03*
Y54148D02*
D03*
X192796D02*
D03*
Y32148D02*
D03*
D22*
X143045Y40648D02*
D03*
Y45649D02*
D03*
Y50648D02*
D03*
Y55649D02*
D03*
Y60648D02*
D03*
Y65649D02*
D03*
Y70648D02*
D03*
Y75649D02*
D03*
Y80648D02*
D03*
Y85649D02*
D03*
Y90648D02*
D03*
Y95649D02*
D03*
X62044Y65649D02*
D03*
Y50648D02*
D03*
Y45649D02*
D03*
Y40648D02*
D03*
D23*
X130045Y108649D02*
D03*
X125044D02*
D03*
X120045D02*
D03*
X115044D02*
D03*
X110045D02*
D03*
X105044D02*
D03*
X100045D02*
D03*
X95044D02*
D03*
X85044D02*
D03*
X80045D02*
D03*
X75044D02*
D03*
Y27648D02*
D03*
X80045D02*
D03*
X85044D02*
D03*
X90045D02*
D03*
X95044D02*
D03*
X100045D02*
D03*
X105044D02*
D03*
X110045D02*
D03*
X115044D02*
D03*
X120045D02*
D03*
X125044D02*
D03*
X130045D02*
D03*
D24*
X205620Y89892D02*
D03*
Y99392D02*
D03*
Y108892D02*
D03*
X179620D02*
D03*
Y89892D02*
D03*
D33*
X253306Y33149D02*
D03*
Y58149D02*
D03*
Y78149D02*
D03*
D34*
Y103149D02*
D03*
D35*
X274306Y45649D02*
D03*
Y90649D02*
D03*
D36*
Y11149D02*
D03*
Y125149D02*
D03*
M02*
