G04*
G04 #@! TF.GenerationSoftware,Altium Limited,Altium Designer,23.8.1 (32)*
G04*
G04 Layer_Color=16711935*
%FSLAX44Y44*%
%MOMM*%
G71*
G04*
G04 #@! TF.SameCoordinates,C9A30DB4-BB40-4B38-85DC-7C9B31114FAE*
G04*
G04*
G04 #@! TF.FilePolarity,Negative*
G04*
G01*
G75*
%ADD25R,2.0508X1.8508*%
%ADD26R,0.5508X0.5508*%
%ADD33C,1.4200*%
%ADD34R,1.4200X1.4200*%
%ADD35C,1.1000*%
%ADD36O,3.0000X1.5000*%
%ADD48R,1.2341X1.4786*%
%ADD49R,0.6508X0.8508*%
%ADD50R,0.5508X0.6508*%
%ADD51R,0.5508X0.5508*%
D25*
X23998Y116649D02*
D03*
Y92399D02*
D03*
Y68149D02*
D03*
Y43899D02*
D03*
Y19649D02*
D03*
D26*
X89922Y51838D02*
D03*
Y41838D02*
D03*
X118780Y51838D02*
D03*
Y41838D02*
D03*
X109160D02*
D03*
Y51838D02*
D03*
X99541Y41838D02*
D03*
Y51838D02*
D03*
X80302Y41838D02*
D03*
Y51838D02*
D03*
X70683Y41838D02*
D03*
Y51838D02*
D03*
D33*
X253306Y33149D02*
D03*
Y58149D02*
D03*
Y78149D02*
D03*
D34*
Y103149D02*
D03*
D35*
X274306Y45649D02*
D03*
Y90649D02*
D03*
D36*
Y11149D02*
D03*
Y125149D02*
D03*
D48*
X162094Y55681D02*
D03*
X181419D02*
D03*
Y74937D02*
D03*
X162094D02*
D03*
D49*
X213363Y86019D02*
D03*
X230363D02*
D03*
X212339Y62595D02*
D03*
X229339D02*
D03*
Y73963D02*
D03*
X212339D02*
D03*
D50*
X215839Y19554D02*
D03*
X225839D02*
D03*
X118780Y68057D02*
D03*
X128780D02*
D03*
X60683Y80957D02*
D03*
X70683D02*
D03*
Y70873D02*
D03*
X60683D02*
D03*
Y60790D02*
D03*
X70683D02*
D03*
X215839Y36095D02*
D03*
X225839D02*
D03*
X215839Y27825D02*
D03*
X225839D02*
D03*
D51*
X128780Y59427D02*
D03*
X118780D02*
D03*
Y85317D02*
D03*
X128780D02*
D03*
X118780Y76687D02*
D03*
X128780D02*
D03*
X89922Y28512D02*
D03*
X79922D02*
D03*
X60683Y91040D02*
D03*
X70683D02*
D03*
X225839Y43866D02*
D03*
X215839D02*
D03*
M02*
